<svg width="162" height="162" viewBox="0 0 162 162" fill="none" xmlns="http://www.w3.org/2000/svg">
<rect width="162" height="162" rx="32" fill="#202123"/>
<path d="M49.4827 55.5732C47.9539 53.6648 44.9323 53.0252 42.3842 53.3736C39.8722 53.7168 38.05 55.5368 36.9381 57.7208C36.516 58.558 36.3256 59.3328 36.1557 60.2324C35.8623 61.7664 36.48 62.2448 35.6513 62.7128C35.4505 63.3108 35.4402 64.4548 35.6873 65.136L36.4131 67.1328L36.7992 67.1848C36.8815 67.1952 36.7065 67.476 36.6139 67.5644L37.1749 71.2148C37.422 72.8268 37.6948 74.4336 38.3228 75.952C38.6574 76.7632 39.3163 77.59 39.7487 78.344L39.1464 78.9316H22.0103L22.1235 66.7376C22.4993 61.3556 26.8232 57.5752 31.8833 56.9772L22 56.8836C22.0257 51.1532 26.1798 46.6604 31.7288 46H55.7627C60.1072 46.5512 63.5869 49.3176 64.9304 53.4204C67.0255 59.9828 63.0516 66.4828 56.3649 67.8036L65.4761 67.866V78.9264L48.3657 78.9212C49.39 76.5656 49.8482 74.132 50.4092 71.5892C50.7181 70.18 51.5108 68.8488 51.9792 67.4864C51.7476 66.54 52.1079 65.916 52.3807 65.136C53.647 61.5688 52.7462 59.8528 52.5403 60.1388L52.1491 60.6796L51.7167 59.2964C51.449 58.4332 50.9549 57.4088 50.3887 56.6964L49.4827 55.568V55.5732Z" fill="#8BFFEC"/>
<path d="M42.9814 63.706C42.3637 64.4392 41.6276 64.6992 40.5826 64.8292L40.665 62.9572V62.0576L40.6341 61.0384C41.2724 60.664 40.7988 59.9152 41.9776 59.832L42.2247 60.1024C42.271 60.1544 42.5026 59.9464 42.4512 59.8944L42.1938 59.65L42.8784 59.0884L42.8063 59.7436C42.7909 59.8736 43.1873 60.118 43.2902 60.118L42.935 58.3812L43.5527 58.9896L44.0572 58.8024C44.191 58.7504 44.2785 59.2756 44.2785 59.4212V60.9188C44.2785 61.2828 44.3094 61.5532 44.3455 61.7144L44.052 62.198C43.9697 62.3332 44.4793 62.562 44.6286 62.5256L45.5242 62.3072L44.994 62.5464C45.6272 62.8064 46.0853 63.8308 45.2875 64.434L44.8448 62.7024C44.0315 62.952 43.4704 63.1132 42.9865 63.6904L42.9814 63.706Z" fill="#8BFFEC"/>
<path d="M40.6856 76.4771L39.9546 75.0523C39.9546 74.9899 39.9032 74.9275 39.8826 74.9847L39.7075 75.4111C39.6355 75.5879 39.2082 75.1823 39.2391 74.9171C39.2649 74.6987 39.5634 74.4907 39.934 74.3815L39.5377 73.7523L38.6986 73.7887L39.4038 72.7539C39.4347 72.7123 39.7024 72.7591 39.7539 72.7643C39.8053 72.7695 39.8053 72.7227 39.7796 72.6759L39.5016 72.2651L38.8222 72.6239L39.1568 72.0987C39.2237 71.9947 39.0281 71.7555 38.9714 71.6047L38.4824 70.3203L38.2045 69.4207L38.014 69.0047L38.8325 69.2751C39.0384 69.3427 39.131 69.8419 39.2082 70.1747L40.1348 70.5699C39.9443 71.3395 40.351 71.5371 40.7576 71.9739L41.8026 73.0971L41.5967 73.5131C41.5555 73.6015 41.7717 73.7991 41.8386 73.8771L42.1475 74.2047C42.2298 74.2879 42.0188 74.5479 41.9416 74.6363L42.1938 75.4267C42.2607 75.6295 42.3688 75.9519 42.3482 76.1183C42.3225 76.3159 41.9364 76.5707 41.7666 76.6539L41.9261 77.5327L41.5246 76.9295C41.4474 76.8151 41.0613 76.9659 40.9481 77.0387L40.5826 77.2779C40.5054 77.3299 40.3561 77.0023 40.3252 76.9191L40.1502 76.4927C40.1193 76.4095 40.4642 76.4563 40.6856 76.4719V76.4771Z" fill="#8BFFEC"/>
<path d="M48.1855 66.9404C47.9693 66.9976 47.5523 67.034 47.3413 66.9976C47.6707 66.7844 47.6502 66.7115 47.3567 66.7635L46.8317 65.9368C47.0479 65.8224 47.3207 65.6456 47.2641 65.4844C47.1611 65.1932 46.9758 64.928 46.7751 64.72C46.6412 64.4704 46.425 63.9764 46.3478 63.6228L45.9103 61.5896C45.8948 61.5168 46.1522 61.2412 46.0853 61.21L45.761 61.0748L45.9772 59.9984L46.7751 59.9464L46.4971 59.3744C46.6361 59.3276 47.1457 59.468 47.2075 59.6344L47.5009 60.43L47.681 60.2064C47.7274 60.1492 47.8612 60.274 47.8561 60.3468L47.8458 60.638C47.7325 61.0488 47.6193 61.3712 47.4031 61.8132L48.0156 63.7424L47.8715 64.5588C47.82 64.8448 47.923 65.4948 48.1392 65.5468C48.6282 65.4792 49.1429 65.4532 49.5341 65.5208L49.1584 67.0392C49.0966 67.2991 48.9628 67.6735 48.7723 67.6423C48.5098 67.5955 48.3039 67.3096 48.1752 66.9404H48.1855Z" fill="#8BFFEC"/>
<path d="M44.6027 67.658L44.0674 66.4672L43.9129 67.2108C43.3776 66.5712 44.3144 65.9784 44.2475 65.2712L44.0674 63.394C44.438 63.7996 44.8755 64.8032 44.6439 65.3232L44.263 66.1708L44.9682 65.6248L44.3865 66.6128L44.5924 67.6528L44.6027 67.658Z" fill="#8BFFEC"/>
<path d="M37.2674 65.3284L36.3718 64.8188C36.2894 64.772 36.1968 64.4964 36.1968 64.408C36.1968 64.2884 36.4335 64.044 36.5622 64.044C36.9226 64.044 37.6792 64.5432 37.2726 65.3284H37.2674Z" fill="#8BFFEC"/>
<path d="M45.6682 68.2196C45.6888 68.5472 45.5087 68.9008 45.1689 69.0204L45.2976 67.0392L45.2204 66.6648C45.205 66.5816 45.5498 66.462 45.555 66.5452L45.5859 67.0132L45.6682 68.2196Z" fill="#8BFFEC"/>
<path d="M51.6807 61.2984L52.1285 62.1408C51.6549 61.9016 51.4336 61.5532 51.2534 61.0904L52.216 60.8096C52.4065 60.7524 52.6587 61.21 52.6947 61.4128L51.6807 61.2984Z" fill="#8BFFEC"/>
<path d="M49.9304 95.8108C49.9355 95.9564 48.9009 96.076 48.8134 95.7796C48.731 95.504 48.7876 95.0204 48.8134 94.7708C48.7465 94.6928 48.8288 94.4484 48.8957 94.5004C48.9627 94.5576 49.1788 94.7656 49.2355 94.8488L49.9355 95.8108H49.9304Z" fill="white"/>
<path d="M41.4165 89.2952L43.1409 89.5396L42.6055 90.2104C42.482 90.3612 42.6724 90.7824 42.76 90.9176L42.2967 91.162L44.644 91.1984L44.4689 89.9816L43.8049 89.6436C45.0043 89.4044 46.8986 89.5032 48.4531 90.07C47.8972 90.8604 47.0324 90.5588 46.1213 90.148C46.286 90.7304 46.9398 90.7096 47.3464 90.98C47.5575 91.1464 47.856 91.3284 48.0362 91.3284C48.2472 91.3284 48.5252 90.8864 48.6281 90.668C48.9061 90.0856 48.937 89.7632 48.5046 89.3316C47.6501 88.5724 47.4442 87.4752 47.7531 86.3624C46.9603 84.5944 47.1251 82.6548 47.8972 80.7984C53.2506 80.9076 57.4768 79.8728 61.775 83.492C64.1686 85.5044 65.4194 88.5412 65.5121 91.708L55.0883 91.7444C61.4815 92.1864 66.2224 97.7088 65.3937 104.209C64.7193 109.305 60.8741 113.064 55.7369 113.699H31.7494C26.5143 113.059 22.6485 109.18 22.0257 103.918L22.1132 90.564C22.1441 85.7384 27.2607 80.9128 32.0685 80.8608L39.3008 80.7776C39.4449 80.6372 39.7538 80.3824 39.8413 80.502L40.2531 81.0636L39.4861 81.178C40.0524 81.5888 40.8502 81.464 41.19 80.8868L40.5002 80.4084C40.8863 80.19 40.8502 80.2108 40.9017 79.9456C40.9274 79.8 40.6186 79.6544 40.2377 79.5296C40.1141 79.6024 40.4178 79.306 40.5002 79.3476L41.0046 79.6024C41.3959 79.8 41.5863 79.8468 42.0084 79.6856L41.7202 81.0012L42.1937 81.1988L41.818 81.3652C41.6944 81.4224 41.7253 81.8332 41.6738 81.9788L40.8605 84.168C41.2878 83.5388 41.715 82.8628 42.0239 82.1608C42.8783 80.216 43.7122 78.3804 44.6954 76.5344L45.0763 75.8168C45.0455 75.7492 44.8602 75.4996 44.9425 75.4112L45.3492 74.9848L45.6374 74.08L45.9978 71.7244C46.0647 71.6828 46.2706 71.5476 46.2448 71.558L46.4868 69.6392L46.5949 68.7656C47.5883 69.0308 47.681 69.9564 47.7737 70.726L48.0516 71.1628C48.1288 71.2824 47.6553 71.454 47.6089 71.3084C47.5214 71.0432 47.0942 70.8612 46.7905 70.9548L47.7119 72.2028L47.9744 71.5216C48.1185 72.0416 48.0465 72.6448 47.9435 73.2636L48.1031 73.5288C48.1546 73.612 47.7891 73.742 47.6861 73.69L46.7184 73.17C46.6515 73.8564 46.9964 74.3972 47.4802 74.8496L46.8831 75.0888L47.1045 75.7596C47.2229 76.1236 47.4133 76.9088 47.1971 77.2052L46.842 77.6992C46.6824 77.9228 47.645 78.3076 47.645 78.3648L47.6141 78.7652L47.2177 78.4012C47.1457 78.3336 46.9398 78.604 46.9243 78.6976L46.8677 79.02C46.8574 79.0772 46.6463 79.0876 46.6618 79.0304L46.775 78.6404L46.3323 78.5936C46.2706 78.6976 46.2345 78.8016 46.1779 78.8328L45.761 79.046L46.5794 79.2852L46.4301 79.592C46.389 79.6752 46.5228 79.8104 46.7184 80.06L46.1573 80.398L46.8831 80.9024L46.2191 81.62L46.0286 81.3184C46.0081 81.2872 45.9617 81.2976 45.9514 81.334C45.9308 81.3912 45.8536 81.5836 45.8588 81.5784L45.1742 81.2456L45.4315 81.6616C45.4881 81.7552 45.169 81.9632 45.0763 82.0464C44.994 82.1192 45.133 82.426 45.2359 82.3896C46.1728 82.0256 46.2603 81.3444 47.2949 81.8176L46.9346 82.7848L46.2191 83.7156C46.4559 83.9236 46.6 84.0432 46.636 84.6308L46.0441 84.0484C45.9514 83.96 45.6941 83.7988 45.5551 83.752C45.4058 83.7052 45.3543 84.012 45.4058 84.3084L44.8293 84.5216L45.5448 85.5928L45.761 84.922L45.9411 85.884L44.8035 86.2272L45.5139 86.3988C44.7006 86.482 44.1704 86.7056 43.7946 87.3088L42.5798 87.9744L41.4782 87.7924L41.9003 88.432L41.0098 88.1564L41.401 88.5412C41.504 88.64 41.4473 88.9364 41.4062 89.2848L41.4165 89.2952ZM40.2531 83.3516C40.3972 83.1072 40.6134 82.5456 40.3406 82.2024L39.6611 83.9548C39.6045 84.1004 39.6714 84.5892 39.8001 84.5788L40.1965 84.5372C40.4487 84.5112 40.0575 83.6896 40.2583 83.3516H40.2531ZM43.1924 94.0064L45.308 94.0168L46.6463 94.0428H49.076C49.6577 94.048 50.2445 94.4432 51.0423 94.1988L50.2496 92.8572C49.2561 92.3996 50.2548 91.7184 47.995 91.5052C46.5434 91.37 45.1021 91.2452 43.7586 91.5L43.5681 92.1916C43.5321 92.3268 42.971 92.228 42.9813 92.0876L43.0225 91.3908C41.751 91.3232 40.4384 91.3596 39.1567 91.6196C38.2147 91.3544 37.4734 91.8484 37.2264 92.7532L36.3049 94.2248L38.8375 94.0064L39.7744 93.9752L41.1179 93.8868L42.0599 93.8608L42.9298 93.9752L42.8938 92.644C43.1872 93.0756 43.1718 93.4032 43.1924 94.0012V94.0064ZM45.1844 95.7952L44.994 94.7812C44.7572 94.1364 43.8255 94.1884 43.1666 94.2092C42.6673 94.2248 42.2349 94.3496 42.2812 94.75C42.3327 95.218 42.3379 95.79 42.7857 95.894C43.599 96.0812 44.5667 96.0292 45.1844 95.8004V95.7952ZM51.9586 96.2112L35.5277 96.2216V97.1368L51.9586 97.1264V96.2112ZM38.6934 103.626L36.6653 103.616L36.7322 102.311L39.1721 102.3L39.6406 100.876L34.7813 100.865V107.402L36.6653 107.365L36.6859 105.046L38.1838 104.994L38.6934 103.632V103.626ZM42.1834 100.839H40.2428L40.248 107.386H42.1886L42.1834 100.839ZM47.4236 103.626L45.4573 103.611L45.5448 102.29L47.8972 102.321L48.3708 100.87H43.4909V107.381L45.4676 107.355L45.4779 105.046L46.9758 104.978L47.4185 103.621L47.4236 103.626ZM51.7115 106.393L52.1285 107.412L54.0125 107.35L51.7115 100.865L49.6988 100.855L47.367 107.355L49.2716 107.391L49.5393 106.388H51.7064L51.7115 106.393Z" fill="#8BFFEC"/>
<path d="M51.4901 105.223L49.8944 105.285L50.6819 102.644L51.4901 105.223Z" fill="#8BFFEC"/>
<path d="M97.699 61.7825H102.29V65.0188H92.4681V50.3423H97.699V61.7825ZM102.593 65V50.3423H108.877C113.619 50.3423 114.691 51.3584 114.691 53.6728V54.9899C114.691 56.1753 114.447 57.0032 113.525 57.4924C114.522 57.9816 114.804 58.8284 114.804 60.0326V61.6696C114.804 63.9839 113.619 65 108.877 65H102.593ZM107.824 56.1H108.802C109.272 56.1 109.517 56.0436 109.517 55.7049V53.8421C109.517 53.5034 109.272 53.447 108.802 53.447H107.824V56.1ZM107.824 61.8954H108.877C109.329 61.8954 109.573 61.8389 109.573 61.519V59.3176C109.573 58.9977 109.329 58.9224 108.877 58.9224H107.824V61.8954ZM122.288 50.3235H127.519V65H122.288V58.9036H120.594V65H115.363V50.3235H120.594V55.6673H122.288V50.3235ZM86.5354 73.3235C91.4652 73.3235 92.7071 74.5466 92.7071 76.8421V84.5002C92.7071 86.7958 91.4652 88 86.5354 88H80.5519V73.3235H86.5354ZM87.4762 77.0115C87.4762 76.6163 87.2316 76.5599 86.5354 76.5599H85.7828V84.7825H86.5354C87.2316 84.7825 87.4762 84.726 87.4762 84.3309V77.0115ZM105.441 88L100.041 88.0188L98.7993 82.9949H98.4983V88.0188H93.2674V73.3423H99.3638C104.124 73.3423 105.31 74.4713 105.31 76.7857V79.5516C105.31 80.7935 104.952 81.6966 103.88 82.2799L105.441 88ZM98.4983 76.5599V79.7586H99.3638C99.8342 79.7586 100.079 79.7021 100.079 79.3823V76.955C100.079 76.6163 99.8342 76.5599 99.3638 76.5599H98.4983ZM113.186 88L112.847 85.7797H110.232L109.855 88H104.775L108.576 73.3235H114.653L118.511 88H113.186ZM110.796 82.5622H112.339L111.605 77.9146L110.796 82.5622ZM128.73 76.5599H123.837V79.6457H128.485V82.8632H123.837V88.0188H118.607V73.3423H128.73V76.5599ZM139.723 73.3235V76.5599H136.618V88H131.387V76.5599H128.301V73.3235H139.723ZM84.9422 111V108.535C90.5682 103.06 91.5843 102.552 91.5843 101.103V99.5787C91.5843 99.3153 91.3209 99.24 90.8693 99.24C90.4177 99.24 90.1731 99.3153 90.1731 99.5787V100.689H84.9987V99.6351C84.9987 97.5089 86.2782 96.0789 90.8693 96.0789C95.4604 96.0789 96.7587 97.3396 96.7587 99.5222V101.234C96.7587 103.041 95.0464 104.226 92.0923 107.914H96.8716V111H84.9422ZM103.572 96.0789C108.501 96.0789 109.743 97.3584 109.743 99.654V107.688C109.743 109.984 108.501 111.263 103.572 111.263C98.6607 111.263 97.4189 109.984 97.4189 107.688V99.654C97.4189 97.3584 98.6607 96.0789 103.572 96.0789ZM104.512 99.8233C104.512 99.4282 104.268 99.3717 103.572 99.3717C102.894 99.3717 102.65 99.4282 102.65 99.8233V107.519C102.65 107.914 102.894 107.971 103.572 107.971C104.268 107.971 104.512 107.914 104.512 107.519V99.8233ZM110.245 111V108.535C115.871 103.06 116.887 102.552 116.887 101.103V99.5787C116.887 99.3153 116.623 99.24 116.172 99.24C115.72 99.24 115.475 99.3153 115.475 99.5787V100.689H110.301V99.6351C110.301 97.5089 111.581 96.0789 116.172 96.0789C120.763 96.0789 122.061 97.3396 122.061 99.5222V101.234C122.061 103.041 120.349 104.226 117.395 107.914H122.174V111H110.245ZM135.046 100.689H129.815V99.8233C129.815 99.4282 129.57 99.3717 128.874 99.3717C128.197 99.3717 127.952 99.4282 127.952 99.8233V102.589C128.629 102.232 129.533 102.062 130.549 102.062C134.124 102.062 135.046 103.248 135.046 104.697V107.688C135.046 109.984 133.804 111.263 128.874 111.263C123.963 111.263 122.721 109.984 122.721 107.688V99.654C122.721 97.3584 123.963 96.0789 128.874 96.0789C133.804 96.0789 135.046 97.3584 135.046 99.654V100.689ZM128.874 104.753C128.197 104.753 127.952 104.885 127.952 105.148V107.575C127.952 107.914 128.197 107.971 128.874 107.971C129.57 107.971 129.815 107.914 129.815 107.575V105.148C129.815 104.885 129.57 104.753 128.874 104.753Z" fill="#8BFFEC"/>
</svg>
