<svg width="119" height="121" viewBox="0 0 119 121" fill="none" xmlns="http://www.w3.org/2000/svg">
<path d="M26.9956 8.04148C25.7114 6.43842 23.1733 5.90116 21.0329 6.19382C18.9228 6.4821 17.3922 8.0109 16.4582 9.84546C16.1036 10.5487 15.9437 11.1995 15.801 11.9552C15.5545 13.2438 16.0734 13.6456 15.3772 14.0387C15.2086 14.5411 15.1999 15.502 15.4075 16.0742L16.0172 17.7515L16.3415 17.7952C16.4106 17.8039 16.2636 18.0398 16.1858 18.1141L16.6571 21.1804C16.8646 22.5345 17.0938 23.8842 17.6213 25.1596C17.9024 25.8411 18.4559 26.5356 18.8191 27.1689L18.3132 27.6625H3.9188L4.01393 17.4196C4.32958 12.8987 7.96168 9.72316 12.2121 9.22084L3.91016 9.14221C3.93178 4.32868 7.42119 0.554735 12.0824 0H32.2708C35.9202 0.463007 38.8432 2.78678 39.9717 6.23313C41.7316 11.7455 38.3935 17.2055 32.7767 18.315L40.4301 18.3674V27.6581L26.0573 27.6538C26.9178 25.6751 27.3026 23.6308 27.7739 21.4949C28.0334 20.3112 28.6992 19.193 29.0927 18.0486C28.8981 17.2536 29.2008 16.7294 29.43 16.0742C30.4937 13.0778 29.737 11.6363 29.564 11.8766L29.2354 12.3308L28.8722 11.169C28.6474 10.4439 28.2323 9.58338 27.7566 8.98496L26.9956 8.03711V8.04148Z" fill="white"/>
<path d="M21.5345 14.873C21.0156 15.4889 20.3973 15.7073 19.5195 15.8165L19.5887 14.244V13.4883L19.5628 12.6322C20.0989 12.3177 19.7011 11.6887 20.6913 11.6188L20.8989 11.846C20.9378 11.8896 21.1324 11.7149 21.0891 11.6712L20.8729 11.4659L21.448 10.9942L21.3875 11.5446C21.3745 11.6538 21.7074 11.8591 21.7939 11.8591L21.4956 10.4001L22.0144 10.9112L22.4382 10.754C22.5506 10.7103 22.6241 11.1514 22.6241 11.2737V12.5317C22.6241 12.8375 22.6501 13.0646 22.6803 13.2L22.4339 13.6063C22.3647 13.7198 22.7927 13.912 22.9181 13.8814L23.6705 13.698L23.2251 13.8989C23.757 14.1173 24.1418 14.9778 23.4716 15.4845L23.0997 14.03C22.4166 14.2396 21.9453 14.375 21.5388 14.8599L21.5345 14.873Z" fill="white"/>
<path d="M19.6061 25.6008L18.9921 24.404C18.9921 24.3515 18.9488 24.2991 18.9315 24.3472L18.7845 24.7053C18.724 24.8539 18.3651 24.5132 18.391 24.2904C18.4127 24.1069 18.6634 23.9322 18.9748 23.8405L18.6418 23.312L17.937 23.3425L18.5294 22.4733C18.5553 22.4384 18.7802 22.4777 18.8234 22.482C18.8667 22.4864 18.8667 22.4471 18.845 22.4078L18.6116 22.0627L18.0408 22.3641L18.3219 21.9229C18.3781 21.8356 18.2138 21.6346 18.1662 21.508L17.7554 20.4291L17.5219 19.6734L17.3619 19.324L18.0494 19.5511C18.2224 19.6079 18.3002 20.0272 18.3651 20.3068L19.1434 20.6387C18.9834 21.2852 19.325 21.4512 19.6666 21.8181L20.5443 22.7616L20.3714 23.111C20.3368 23.1853 20.5184 23.3513 20.5746 23.4168L20.8341 23.692C20.9032 23.7619 20.726 23.9803 20.6611 24.0545L20.873 24.7184C20.9292 24.8888 21.02 25.1596 21.0027 25.2994C20.9811 25.4654 20.6568 25.6794 20.5141 25.7493L20.6481 26.4875L20.3109 25.9808C20.246 25.8847 19.9217 26.0114 19.8266 26.0725L19.5196 26.2735C19.4547 26.3171 19.3293 26.0419 19.3034 25.9721L19.1564 25.6139C19.1304 25.544 19.4201 25.5833 19.6061 25.5964V25.6008Z" fill="white"/>
<path d="M25.906 17.5899C25.7244 17.6379 25.3741 17.6685 25.1968 17.6379C25.4736 17.4589 25.4563 17.3977 25.2098 17.4414L24.7688 16.7469C24.9504 16.6508 25.1795 16.5023 25.132 16.3669C25.0455 16.1223 24.8898 15.8995 24.7212 15.7248C24.6088 15.5151 24.4272 15.1001 24.3623 14.8031L23.9948 13.0952C23.9818 13.0341 24.198 12.8026 24.1418 12.7764L23.8694 12.6628L24.051 11.7586L24.7212 11.7149L24.4877 11.2345C24.6045 11.1952 25.0325 11.3131 25.0844 11.4529L25.3309 12.1212L25.4822 11.9333C25.5211 11.8853 25.6335 11.9901 25.6292 12.0513L25.6206 12.2959C25.5255 12.641 25.4303 12.9118 25.2487 13.2831L25.7633 14.9036L25.6422 15.5894C25.599 15.8296 25.6854 16.3756 25.867 16.4193C26.2778 16.3625 26.7102 16.3407 27.0388 16.3974L26.7232 17.6729C26.6713 17.8913 26.5589 18.2058 26.3989 18.1796C26.1784 18.1403 26.0054 17.9 25.8973 17.5899H25.906Z" fill="white"/>
<path d="M22.8964 18.1926L22.4467 17.1923L22.317 17.8169C21.8673 17.2797 22.6543 16.7817 22.5981 16.1877L22.4467 14.6108C22.7581 14.9515 23.1256 15.7946 22.931 16.2314L22.6111 16.9433L23.2034 16.4847L22.7148 17.3146L22.8878 18.1882L22.8964 18.1926Z" fill="white"/>
<path d="M16.7348 16.2359L15.9825 15.8078C15.9133 15.7685 15.8354 15.537 15.8354 15.4627C15.8354 15.3623 16.0343 15.157 16.1424 15.157C16.4451 15.157 17.0807 15.5763 16.7392 16.2359H16.7348Z" fill="white"/>
<path d="M23.7915 18.6645C23.8088 18.9397 23.6574 19.2367 23.3721 19.3372L23.4802 17.673L23.4153 17.3585C23.4023 17.2886 23.692 17.1881 23.6964 17.258L23.7223 17.6512L23.7915 18.6645Z" fill="white"/>
<path d="M28.8419 12.8507L29.2181 13.5584C28.8203 13.3574 28.6344 13.0648 28.483 12.676L29.2916 12.4402C29.4516 12.3921 29.6635 12.7765 29.6937 12.9468L28.8419 12.8507Z" fill="white"/>
<path d="M27.3717 41.8412C27.376 41.9635 26.5069 42.0639 26.4334 41.8149C26.3642 41.5834 26.4118 41.1772 26.4334 40.9676C26.3772 40.902 26.4464 40.6967 26.5026 40.7404C26.5588 40.7885 26.7404 40.9632 26.788 41.0331L27.376 41.8412H27.3717Z" fill="white"/>
<path d="M20.2199 36.3679L21.6685 36.5732L21.2188 37.1367C21.115 37.2633 21.275 37.6171 21.3485 37.7307L20.9593 37.936L22.931 37.9666L22.784 36.9445L22.2262 36.6605C23.2337 36.4596 24.8249 36.5426 26.1308 37.0187C25.6638 37.6827 24.9373 37.4293 24.172 37.0842C24.3104 37.5735 24.8595 37.556 25.2011 37.7831C25.3784 37.9229 25.6292 38.0758 25.7805 38.0758C25.9578 38.0758 26.1913 37.7045 26.2778 37.521C26.5113 37.0318 26.5372 36.761 26.174 36.3985C25.4562 35.7607 25.2833 34.8391 25.5427 33.9043C24.8768 32.4192 25.0152 30.79 25.6638 29.2306C30.1607 29.3223 33.7106 28.4531 37.3211 31.4932C39.3317 33.1836 40.3824 35.7345 40.4603 38.3946L31.7043 38.4252C37.0746 38.7965 41.057 43.4353 40.3608 48.8953C39.7944 53.1759 36.5644 56.334 32.2491 56.8669H12.0996C7.70217 56.3296 4.4549 53.0711 3.9317 48.6507L4.00521 37.4337C4.03115 33.3802 8.32914 29.3267 12.3677 29.283L18.4428 29.2131C18.5639 29.0952 18.8233 28.8811 18.8968 28.9816L19.2427 29.4534L18.5985 29.5495C19.0741 29.8945 19.7443 29.7897 20.0297 29.3048L19.4503 28.903C19.7746 28.7195 19.7443 28.737 19.7875 28.5142C19.8092 28.3919 19.5497 28.2696 19.2298 28.1648C19.126 28.2259 19.3811 27.977 19.4503 28.0119L19.874 28.2259C20.2026 28.3919 20.3626 28.4312 20.7172 28.2958L20.4751 29.4009L20.8729 29.5669L20.5572 29.7067C20.4534 29.7547 20.4794 30.0998 20.4361 30.2221L19.753 32.061C20.1118 31.5325 20.4707 30.9647 20.7302 30.375C21.4479 28.7414 22.1484 27.1995 22.9743 25.6488L23.2943 25.046C23.2683 24.9893 23.1126 24.7796 23.1818 24.7053L23.5234 24.3472L23.7656 23.5871L24.0682 21.6084C24.1245 21.5735 24.2974 21.4599 24.2758 21.4687L24.479 19.8569L24.5698 19.123C25.4043 19.3458 25.4822 20.1233 25.56 20.7698L25.7935 21.1367C25.8583 21.2372 25.4605 21.3813 25.4216 21.259C25.3481 21.0362 24.9892 20.8834 24.7341 20.962L25.5081 22.0103L25.7286 21.4381C25.8497 21.8749 25.7892 22.3816 25.7027 22.9014L25.8367 23.1241C25.88 23.194 25.573 23.3032 25.4865 23.2595L24.6736 22.8227C24.6174 23.3993 24.9071 23.8536 25.3135 24.2336L24.812 24.4345L24.9979 24.998C25.0973 25.3038 25.2573 25.9633 25.0757 26.2123L24.7774 26.6273C24.6433 26.8151 25.4519 27.1383 25.4519 27.1864L25.426 27.5227L25.093 27.2169C25.0325 27.1602 24.8595 27.3873 24.8465 27.4659L24.799 27.7367C24.7903 27.7848 24.6131 27.7935 24.626 27.7455L24.7212 27.4179L24.3493 27.3786C24.2974 27.4659 24.2671 27.5533 24.2196 27.5795L23.8693 27.7586L24.5568 27.9595L24.4314 28.2172C24.3969 28.2871 24.5093 28.4007 24.6736 28.6103L24.2023 28.8943L24.812 29.3179L24.2542 29.9207L24.0942 29.6674C24.0769 29.6412 24.038 29.6499 24.0293 29.6805C24.012 29.7285 23.9472 29.8902 23.9515 29.8858L23.3764 29.6062L23.5926 29.9557C23.6402 30.0343 23.3721 30.209 23.2943 30.2789C23.2251 30.3401 23.3418 30.5978 23.4283 30.5672C24.2153 30.2614 24.2888 29.6892 25.1579 30.0867L24.8552 30.8992L24.2542 31.681C24.4531 31.8558 24.5741 31.9562 24.6044 32.4498L24.1072 31.9606C24.0293 31.8863 23.8131 31.7509 23.6964 31.7116C23.571 31.6723 23.5277 31.93 23.571 32.179L23.0867 32.3581L23.6877 33.2579L23.8693 32.6944L24.0207 33.5025L23.0651 33.7908L23.6618 33.9349C22.9786 34.0048 22.5332 34.1926 22.2176 34.6993L21.1971 35.2584L20.2718 35.1055L20.6264 35.6428L19.8784 35.4113L20.207 35.7345C20.2934 35.8175 20.2459 36.0665 20.2113 36.3592L20.2199 36.3679ZM19.2427 31.3753C19.3638 31.17 19.5454 30.6982 19.3162 30.4099L18.7455 31.882C18.6979 32.0043 18.7541 32.4149 18.8622 32.4061L19.1952 32.3712C19.407 32.3493 19.0784 31.6592 19.2471 31.3753H19.2427ZM21.7117 40.3253L23.4888 40.334L24.6131 40.3559H26.6539C27.1426 40.3602 27.6355 40.6922 28.3057 40.4869L27.6398 39.36C26.8053 38.9756 27.6441 38.4034 25.7459 38.2243C24.5266 38.1107 23.3159 38.0059 22.1873 38.2199L22.0273 38.8009C21.9971 38.9144 21.5258 38.8314 21.5344 38.7135L21.569 38.1282C20.501 38.0714 19.3984 38.102 18.3217 38.3204C17.5305 38.0976 16.9078 38.5126 16.7003 39.2726L15.9263 40.5087L18.0537 40.3253L18.8406 40.2991L19.9692 40.2248L20.7604 40.203L21.4912 40.2991L21.4609 39.1809C21.7074 39.5434 21.6944 39.8186 21.7117 40.3209V40.3253ZM23.3851 41.8279L23.2251 40.9761C23.0262 40.4345 22.2435 40.4782 21.6901 40.4956C21.2707 40.5087 20.9074 40.6136 20.9464 40.9499C20.9896 41.343 20.9939 41.8235 21.3701 41.9109C22.0533 42.0681 22.8662 42.0244 23.3851 41.8323V41.8279ZM29.0753 42.1773L15.2734 42.1861V42.9548L29.0753 42.9461V42.1773ZM17.9326 48.4061L16.229 48.3973L16.2852 47.301L18.3347 47.2922L18.7282 46.0954L14.6464 46.0867V51.5772L16.229 51.5467L16.2463 49.5985L17.5045 49.5549L17.9326 48.4105V48.4061ZM20.8642 46.0648H19.2341L19.2384 51.5641H20.8685L20.8642 46.0648ZM25.266 48.4061L23.6142 48.393L23.6877 47.2835L25.6638 47.3097L26.0616 46.091H21.9625V51.5598L23.6229 51.5379L23.6315 49.5985L24.8898 49.5418L25.2616 48.4017L25.266 48.4061ZM28.8678 50.7299L29.218 51.586L30.8006 51.5336L28.8678 46.0867L27.1771 46.0779L25.2184 51.5379L26.8183 51.5685L27.0431 50.7255H28.8635L28.8678 50.7299Z" fill="white"/>
<path d="M28.6818 49.7471L27.3414 49.7995L28.003 47.5806L28.6818 49.7471Z" fill="white"/>
<path d="M69.2588 13.3402H73.1154V16.0588H64.8649V3.73053H69.2588V13.3402ZM73.3696 16.043V3.73053H78.6486C82.6316 3.73053 83.5325 4.58403 83.5325 6.52809V7.63448C83.5325 8.63022 83.327 9.32566 82.5526 9.7366C83.3903 10.1475 83.6273 10.8588 83.6273 11.8703V13.2454C83.6273 15.1895 82.6316 16.043 78.6486 16.043H73.3696ZM77.7635 8.567H78.5854C78.9805 8.567 79.186 8.51958 79.186 8.23508V6.67034C79.186 6.38585 78.9805 6.33843 78.5854 6.33843H77.7635V8.567ZM77.7635 13.4351H78.6486C79.028 13.4351 79.2334 13.3877 79.2334 13.119V11.2697C79.2334 11.001 79.028 10.9378 78.6486 10.9378H77.7635V13.4351ZM89.9133 3.71473H94.3072V16.043H89.9133V10.922H88.4908V16.043H84.0969V3.71473H88.4908V8.20347H89.9133V3.71473ZM59.8815 22.7147C64.0225 22.7147 65.0656 23.7421 65.0656 25.6703V32.1032C65.0656 34.0314 64.0225 35.043 59.8815 35.043H54.8553V22.7147H59.8815ZM60.6717 25.8126C60.6717 25.4807 60.4663 25.4333 59.8815 25.4333H59.2492V32.3402H59.8815C60.4663 32.3402 60.6717 32.2928 60.6717 31.9609V25.8126ZM75.7625 35.043L71.2263 35.0588L70.1831 30.8387H69.9303V35.0588H65.5363V22.7305H70.6573C74.6561 22.7305 75.6518 23.6789 75.6518 25.6229V27.9463C75.6518 28.9895 75.3515 29.7481 74.4506 30.2381L75.7625 35.043ZM69.9303 25.4333V28.1202H70.6573C71.0524 28.1202 71.2579 28.0728 71.2579 27.8041V25.7652C71.2579 25.4807 71.0524 25.4333 70.6573 25.4333H69.9303ZM82.2676 35.043L81.9831 33.1779H79.7862L79.4701 35.043H75.2026L78.3953 22.7147H83.5005L86.7406 35.043H82.2676ZM80.2603 30.4752H81.5564L80.94 26.5713L80.2603 30.4752ZM95.3245 25.4333H91.2151V28.0254H95.1191V30.7281H91.2151V35.0588H86.8212V22.7305H95.3245V25.4333ZM104.559 22.7147V25.4333H101.951V35.043H97.5571V25.4333H94.965V22.7147H104.559ZM58.5432 54.043V51.9725C63.269 47.3731 64.1225 46.9463 64.1225 45.7293V44.4491C64.1225 44.2278 63.9012 44.1646 63.5219 44.1646C63.1426 44.1646 62.9371 44.2278 62.9371 44.4491V45.3816H58.5906V44.4965C58.5906 42.7105 59.6654 41.5093 63.5219 41.5093C67.3784 41.5093 68.469 42.5682 68.469 44.4017V45.8399C68.469 47.3573 67.0307 48.353 64.5492 51.4509H68.5638V54.043H58.5432ZM74.1919 41.5093C78.3329 41.5093 79.3761 42.584 79.3761 44.5123V51.2612C79.3761 53.1895 78.3329 54.2642 74.1919 54.2642C70.0667 54.2642 69.0235 53.1895 69.0235 51.2612V44.5123C69.0235 42.584 70.0667 41.5093 74.1919 41.5093ZM74.9822 44.6545C74.9822 44.3226 74.7767 44.2752 74.1919 44.2752C73.6229 44.2752 73.4175 44.3226 73.4175 44.6545V51.119C73.4175 51.4509 73.6229 51.4983 74.1919 51.4983C74.7767 51.4983 74.9822 51.4509 74.9822 51.119V44.6545ZM79.7972 54.043V51.9725C84.523 47.3731 85.3765 46.9463 85.3765 45.7293V44.4491C85.3765 44.2278 85.1552 44.1646 84.7759 44.1646C84.3966 44.1646 84.1911 44.2278 84.1911 44.4491V45.3816H79.8446V44.4965C79.8446 42.7105 80.9194 41.5093 84.7759 41.5093C88.6324 41.5093 89.723 42.5682 89.723 44.4017V45.8399C89.723 47.3573 88.2847 48.353 85.8032 51.4509H89.8178V54.043H79.7972ZM100.63 45.3816H96.2362V44.6545C96.2362 44.3226 96.0307 44.2752 95.4459 44.2752C94.8769 44.2752 94.6715 44.3226 94.6715 44.6545V46.9779C95.2404 46.6776 95.9991 46.5354 96.8526 46.5354C99.8556 46.5354 100.63 47.5311 100.63 48.7481V51.2612C100.63 53.1895 99.5869 54.2642 95.4459 54.2642C91.3207 54.2642 90.2775 53.1895 90.2775 51.2612V44.5123C90.2775 42.584 91.3207 41.5093 95.4459 41.5093C99.5869 41.5093 100.63 42.584 100.63 44.5123V45.3816ZM95.4459 48.7956C94.8769 48.7956 94.6715 48.9062 94.6715 49.1275V51.1664C94.6715 51.4509 94.8769 51.4983 95.4459 51.4983C96.0307 51.4983 96.2362 51.4509 96.2362 51.1664V49.1275C96.2362 48.9062 96.0307 48.7956 95.4459 48.7956Z" fill="white"/>
</svg>
