<svg width="92" height="41" viewBox="0 0 92 41" fill="none" xmlns="http://www.w3.org/2000/svg">
<path d="M39.7428 10.4498H42.4756V12.3762H36.6292V3.64019H39.7428V10.4498ZM42.6558 12.365V3.64019H46.3966C49.219 3.64019 49.8574 4.24499 49.8574 5.62259V6.40659C49.8574 7.11219 49.7118 7.60499 49.163 7.89619C49.7566 8.18739 49.9246 8.69139 49.9246 9.40819V10.3826C49.9246 11.7602 49.219 12.365 46.3966 12.365H42.6558ZM45.7694 7.06739H46.3518C46.6318 7.06739 46.7774 7.03379 46.7774 6.83219V5.72339C46.7774 5.52179 46.6318 5.48819 46.3518 5.48819H45.7694V7.06739ZM45.7694 10.517H46.3966C46.6654 10.517 46.811 10.4834 46.811 10.293V8.98259C46.811 8.79219 46.6654 8.74739 46.3966 8.74739H45.7694V10.517ZM54.3789 3.62899H57.4925V12.365H54.3789V8.73619H53.3709V12.365H50.2573V3.62899H53.3709V6.80979H54.3789V3.62899ZM40.1908 16.629C43.1252 16.629 43.8644 17.357 43.8644 18.7234V23.2818C43.8644 24.6482 43.1252 25.365 40.1908 25.365H36.6292V16.629H40.1908ZM40.7508 18.8242C40.7508 18.589 40.6052 18.5554 40.1908 18.5554H39.7428V23.4498H40.1908C40.6052 23.4498 40.7508 23.4162 40.7508 23.181V18.8242ZM51.4444 25.365L48.23 25.3762L47.4908 22.3858H47.3116V25.3762H44.198V16.6402H47.8268C50.6604 16.6402 51.366 17.3122 51.366 18.6898V20.3362C51.366 21.0754 51.1532 21.613 50.5148 21.9602L51.4444 25.365ZM47.3116 18.5554V20.4594H47.8268C48.1068 20.4594 48.2524 20.4258 48.2524 20.2354V18.7906C48.2524 18.589 48.1068 18.5554 47.8268 18.5554H47.3116ZM56.054 25.365L55.8524 24.0434H54.2956L54.0716 25.365H51.0476L53.31 16.629H56.9276L59.2236 25.365H56.054ZM54.6316 22.1282H55.55L55.1132 19.3618L54.6316 22.1282ZM65.3064 18.5554H62.3944V20.3922H65.1608V22.3074H62.3944V25.3762H59.2808V16.6402H65.3064V18.5554ZM71.85 16.629V18.5554H70.002V25.365H66.8884V18.5554H65.0516V16.629H71.85ZM36.5956 38.365V36.8978C39.9444 33.6386 40.5492 33.3362 40.5492 32.4738V31.5666C40.5492 31.4098 40.3924 31.365 40.1236 31.365C39.8548 31.365 39.7092 31.4098 39.7092 31.5666V32.2274H36.6292V31.6002C36.6292 30.3346 37.3908 29.4834 40.1236 29.4834C42.8564 29.4834 43.6292 30.2338 43.6292 31.533V32.5522C43.6292 33.6274 42.61 34.333 40.8516 36.5282H43.6964V38.365H36.5956ZM47.6846 29.4834C50.619 29.4834 51.3582 30.245 51.3582 31.6114V36.3938C51.3582 37.7602 50.619 38.5218 47.6846 38.5218C44.7614 38.5218 44.0222 37.7602 44.0222 36.3938V31.6114C44.0222 30.245 44.7614 29.4834 47.6846 29.4834ZM48.2446 31.7122C48.2446 31.477 48.099 31.4434 47.6846 31.4434C47.2814 31.4434 47.1358 31.477 47.1358 31.7122V36.293C47.1358 36.5282 47.2814 36.5618 47.6846 36.5618C48.099 36.5618 48.2446 36.5282 48.2446 36.293V31.7122ZM51.6566 38.365V36.8978C55.0054 33.6386 55.6102 33.3362 55.6102 32.4738V31.5666C55.6102 31.4098 55.4534 31.365 55.1846 31.365C54.9158 31.365 54.7702 31.4098 54.7702 31.5666V32.2274H51.6902V31.6002C51.6902 30.3346 52.4518 29.4834 55.1846 29.4834C57.9174 29.4834 58.6902 30.2338 58.6902 31.533V32.5522C58.6902 33.6274 57.671 34.333 55.9126 36.5282H58.7574V38.365H51.6566ZM66.4191 32.2274H63.3055V31.7122C63.3055 31.477 63.1599 31.4434 62.7455 31.4434C62.3423 31.4434 62.1967 31.477 62.1967 31.7122V33.3586C62.5999 33.1458 63.1375 33.045 63.7423 33.045C65.8703 33.045 66.4191 33.7506 66.4191 34.613V36.3938C66.4191 37.7602 65.6799 38.5218 62.7455 38.5218C59.8223 38.5218 59.0831 37.7602 59.0831 36.3938V31.6114C59.0831 30.245 59.8223 29.4834 62.7455 29.4834C65.6799 29.4834 66.4191 30.245 66.4191 31.6114V32.2274ZM62.7455 34.6466C62.3423 34.6466 62.1967 34.725 62.1967 34.8818V36.3266C62.1967 36.5282 62.3423 36.5618 62.7455 36.5618C63.1599 36.5618 63.3055 36.5282 63.3055 36.3266V34.8818C63.3055 34.725 63.1599 34.6466 62.7455 34.6466Z" fill="#6DC8BD"/>
<path d="M16.3587 5.69833C15.4487 4.56238 13.6502 4.18166 12.1335 4.38904C10.6382 4.59333 9.55358 5.67666 8.89175 6.97666C8.6405 7.47499 8.52714 7.93618 8.42602 8.47166C8.25138 9.38475 8.61906 9.66951 8.12575 9.94808C8.00626 10.304 8.00013 10.985 8.1472 11.3905L8.57922 12.579L8.80902 12.61C8.85805 12.6162 8.75387 12.7833 8.69872 12.8359L9.0327 15.0088C9.17977 15.9683 9.34216 16.9247 9.71597 17.8285C9.91513 18.3114 10.3073 18.8035 10.5647 19.2524L10.2062 19.6021H0.00612802L0.0735362 12.3438C0.297209 9.14023 2.87098 6.88999 5.8829 6.53404L0 6.47833C0.01532 3.06738 2.48797 0.393095 5.79098 0H20.0968C22.6829 0.328095 24.7541 1.97476 25.5538 4.4169C26.8009 8.32308 24.4355 12.1921 20.4553 12.9783L25.8786 13.0155V19.599L15.6939 19.5959C16.3036 18.1938 16.5763 16.7452 16.9103 15.2316C17.0941 14.3928 17.566 13.6005 17.8448 12.7895C17.7069 12.2262 17.9214 11.8547 18.0838 11.3905C18.8375 9.26713 18.3013 8.2457 18.1788 8.41594L17.9459 8.73785L17.6885 7.91451C17.5292 7.40071 17.235 6.79094 16.898 6.3669L16.3587 5.69523V5.69833Z" fill="#6DC8BD"/>
<path d="M12.4888 10.5393C12.1212 10.9757 11.683 11.1305 11.061 11.2078L11.11 10.0936V9.55808L11.0916 8.95142C11.4716 8.72856 11.1897 8.28285 11.8914 8.23332L12.0384 8.39427C12.066 8.42523 12.2039 8.30142 12.1732 8.27046L12.02 8.12499L12.4276 7.7907L12.3847 8.1807C12.3755 8.25808 12.6114 8.40356 12.6727 8.40356L12.4613 7.36975L12.8289 7.73189L13.1292 7.62047C13.2089 7.58951 13.261 7.90213 13.261 7.9888V8.88023C13.261 9.09689 13.2793 9.25784 13.3008 9.3538L13.1261 9.64165C13.0771 9.72213 13.3805 9.85832 13.4693 9.83665L14.0025 9.70665L13.6869 9.84903C14.0637 10.0038 14.3364 10.6136 13.8615 10.9726L13.598 9.94189C13.1139 10.0905 12.7799 10.1864 12.4919 10.53L12.4888 10.5393Z" fill="#6DC8BD"/>
<path d="M11.1223 18.1411L10.6872 17.2931C10.6872 17.2559 10.6566 17.2188 10.6443 17.2528L10.5401 17.5066C10.4972 17.6119 10.2429 17.3704 10.2613 17.2126C10.2766 17.0826 10.4543 16.9588 10.6749 16.8938L10.439 16.5192L9.93959 16.5409L10.3594 15.925C10.3777 15.9002 10.5371 15.9281 10.5677 15.9312C10.5983 15.9342 10.5983 15.9064 10.583 15.8785L10.4176 15.634L10.0131 15.8476L10.2123 15.535C10.2521 15.4731 10.1357 15.3307 10.102 15.2409L9.8109 14.4764L9.64544 13.9409L9.53207 13.6933L10.0193 13.8542C10.1418 13.8945 10.197 14.1916 10.2429 14.3897L10.7944 14.625C10.6811 15.0831 10.9231 15.2007 11.1652 15.4607L11.7872 16.1292L11.6646 16.3769C11.6401 16.4295 11.7688 16.5471 11.8086 16.5935L11.9925 16.7885C12.0415 16.8381 11.9159 16.9928 11.8699 17.0454L12.02 17.5159C12.0599 17.6366 12.1242 17.8285 12.112 17.9276C12.0966 18.0452 11.8668 18.1969 11.7657 18.2464L11.8607 18.7695L11.6217 18.4104C11.5758 18.3423 11.346 18.4321 11.2786 18.4754L11.061 18.6178C11.0151 18.6488 10.9262 18.4538 10.9078 18.4042L10.8036 18.1504C10.7853 18.1009 10.9905 18.1288 11.1223 18.1381V18.1411Z" fill="#6DC8BD"/>
<path d="M15.5866 12.4645C15.4579 12.4985 15.2097 12.5202 15.0841 12.4985C15.2802 12.3716 15.2679 12.3283 15.0932 12.3593L14.7807 11.8671C14.9094 11.799 15.0718 11.6938 15.0381 11.5978C14.9768 11.4245 14.8665 11.2666 14.747 11.1428C14.6673 10.9943 14.5387 10.7002 14.4927 10.4897L14.2323 9.2795C14.2231 9.23617 14.3763 9.07212 14.3364 9.05355L14.1434 8.97307L14.2721 8.33236L14.747 8.30141L14.5816 7.96093C14.6643 7.93308 14.9676 8.01665 15.0044 8.11569L15.179 8.58927L15.2863 8.45617C15.3139 8.42212 15.3935 8.49641 15.3905 8.53974L15.3843 8.71308C15.3169 8.9576 15.2495 9.1495 15.1208 9.4126L15.4854 10.5609L15.3996 11.0469C15.369 11.2171 15.4303 11.604 15.559 11.635C15.8501 11.5947 16.1565 11.5793 16.3893 11.6195L16.1656 12.5233C16.1289 12.6781 16.0492 12.9009 15.9358 12.8824C15.7796 12.8545 15.657 12.6843 15.5804 12.4645H15.5866Z" fill="#6DC8BD"/>
<path d="M13.454 12.8917L13.1354 12.1829L13.0434 12.6255C12.7248 12.2448 13.2824 11.8919 13.2426 11.471L13.1354 10.3536C13.356 10.595 13.6164 11.1924 13.4785 11.5019L13.2518 12.0064L13.6716 11.6814L13.3253 12.2695L13.4479 12.8886L13.454 12.8917Z" fill="#6DC8BD"/>
<path d="M9.08778 11.505L8.55465 11.2017C8.50562 11.1738 8.45047 11.0098 8.45047 10.9571C8.45047 10.886 8.59141 10.7405 8.66801 10.7405C8.88249 10.7405 9.3329 11.0376 9.09085 11.505H9.08778Z" fill="#6DC8BD"/>
<path d="M14.0883 13.226C14.1005 13.421 13.9933 13.6314 13.791 13.7026L13.8676 12.5233L13.8217 12.3005C13.8125 12.251 14.0178 12.1798 14.0208 12.2293L14.0392 12.5079L14.0883 13.226Z" fill="#6DC8BD"/>
<path d="M17.667 9.10619L17.9336 9.60762C17.6517 9.46524 17.5199 9.25786 17.4127 8.98238L17.9857 8.81524C18.099 8.78119 18.2492 9.05357 18.2706 9.17429L17.667 9.10619Z" fill="#6DC8BD"/>
<path d="M16.6253 29.6493C16.6283 29.7359 16.0124 29.8071 15.9604 29.6307C15.9113 29.4667 15.945 29.1788 15.9604 29.0302C15.9205 28.9838 15.9696 28.8383 16.0094 28.8693C16.0492 28.9033 16.1779 29.0271 16.2116 29.0767L16.6283 29.6493H16.6253Z" fill="white"/>
<path d="M11.5574 25.771L12.5838 25.9164L12.2652 26.3157C12.1916 26.4055 12.305 26.6562 12.3571 26.7367L12.0813 26.8821L13.4785 26.9038L13.3743 26.1795L12.9791 25.9783C13.693 25.8359 14.8205 25.8948 15.7459 26.2321C15.415 26.7026 14.9002 26.5231 14.3579 26.2786C14.4559 26.6252 14.8451 26.6129 15.0871 26.7738C15.2127 26.8729 15.3905 26.9812 15.4977 26.9812C15.6233 26.9812 15.7888 26.7181 15.8501 26.5881C16.0155 26.2414 16.0339 26.0495 15.7765 25.7926C15.2679 25.3407 15.1453 24.6876 15.3292 24.0252C14.8573 22.9729 14.9554 21.8183 15.415 20.7133C18.6015 20.7783 21.1171 20.1624 23.6755 22.3167C25.1003 23.5145 25.8449 25.3221 25.9 27.2071L19.6954 27.2288C23.5009 27.4919 26.3228 30.779 25.8295 34.6481C25.4281 37.6814 23.1393 39.9193 20.0815 40.2969H5.80317C2.68707 39.9162 0.386004 37.6071 0.0152588 34.4747L0.0673469 26.5262C0.085731 23.6538 3.13136 20.7814 5.99314 20.7505L10.2981 20.701C10.3839 20.6174 10.5677 20.4657 10.6198 20.5369L10.8649 20.8712L10.4084 20.9393C10.7454 21.1838 11.2203 21.1095 11.4226 20.766L11.012 20.4812C11.2418 20.3512 11.2203 20.3636 11.251 20.2057C11.2663 20.1191 11.0825 20.0324 10.8557 19.9581C10.7822 20.0014 10.963 19.825 11.012 19.8498L11.3123 20.0014C11.5451 20.1191 11.6585 20.1469 11.9097 20.051L11.7382 20.8341L12.02 20.9517L11.7964 21.0507C11.7228 21.0848 11.7412 21.3293 11.7106 21.416L11.2265 22.719C11.4808 22.3445 11.7351 21.9421 11.9189 21.5243C12.4276 20.3667 12.9239 19.2741 13.5092 18.1752L13.7359 17.7481C13.7175 17.7079 13.6072 17.5593 13.6562 17.5067L13.8983 17.2529L14.0699 16.7143L14.2843 15.3122C14.3242 15.2874 14.4467 15.2069 14.4314 15.2131L14.5754 14.071L14.6398 13.551C15.2311 13.7088 15.2863 14.2598 15.3414 14.7179L15.5069 14.9779C15.5528 15.0491 15.271 15.1512 15.2434 15.0645C15.1913 14.9067 14.937 14.7983 14.7562 14.8541L15.3047 15.5969L15.4609 15.1914C15.5467 15.501 15.5038 15.86 15.4425 16.2283L15.5375 16.3862C15.5682 16.4357 15.3506 16.5131 15.2893 16.4822L14.7133 16.1726C14.6735 16.5812 14.8788 16.9031 15.1668 17.1724L14.8114 17.3148L14.9431 17.7141C15.0136 17.9307 15.1269 18.3981 14.9983 18.5745L14.7868 18.8686C14.6919 19.0017 15.2648 19.2307 15.2648 19.2648L15.2464 19.5031L15.0105 19.2864C14.9676 19.2462 14.8451 19.4071 14.8359 19.4629L14.8022 19.6548C14.796 19.6888 14.6704 19.695 14.6796 19.661L14.747 19.4288L14.4835 19.401C14.4467 19.4629 14.4253 19.5248 14.3916 19.5433L14.1434 19.6702L14.6306 19.8126L14.5417 19.9952C14.5172 20.0448 14.5969 20.1252 14.7133 20.2738L14.3793 20.475L14.8114 20.7752L14.4161 21.2024L14.3027 21.0229C14.2905 21.0043 14.2629 21.0105 14.2568 21.0321C14.2445 21.0662 14.1986 21.1807 14.2016 21.1776L13.7941 20.9795L13.9473 21.2271C13.981 21.2829 13.791 21.4067 13.7359 21.4562C13.6869 21.4995 13.7696 21.6821 13.8309 21.6605C14.3885 21.4438 14.4406 21.0383 15.0565 21.32L14.842 21.8957L14.4161 22.4498C14.557 22.5736 14.6428 22.6448 14.6643 22.9945L14.3119 22.6479C14.2568 22.5952 14.1036 22.4993 14.0208 22.4714C13.932 22.4436 13.9013 22.6262 13.932 22.8026L13.5888 22.9295L14.0147 23.5671L14.1434 23.1679L14.2506 23.7405L13.5735 23.9448L13.9963 24.0469C13.5122 24.0964 13.1966 24.2295 12.973 24.5886L12.2498 24.9848L11.5941 24.8764L11.8454 25.2571L11.3153 25.0931L11.5482 25.3221C11.6095 25.3809 11.5758 25.5574 11.5513 25.7648L11.5574 25.771ZM10.8649 22.2331C10.9507 22.0876 11.0794 21.7533 10.917 21.5491L10.5126 22.5921C10.4788 22.6788 10.5187 22.9698 10.5953 22.9636L10.8312 22.9388C10.9813 22.9233 10.7485 22.4343 10.868 22.2331H10.8649ZM12.6145 28.5752L13.8738 28.5814L14.6704 28.5969H16.1166C16.4629 28.6 16.8122 28.8352 17.2871 28.6898L16.8152 27.8912C16.2239 27.6188 16.8183 27.2133 15.4732 27.0864C14.6091 27.0059 13.7512 26.9317 12.9515 27.0833L12.8381 27.495C12.8167 27.5755 12.4827 27.5167 12.4888 27.4331L12.5133 27.0183C11.7565 26.9781 10.9752 26.9998 10.2123 27.1545C9.65157 26.9967 9.21035 27.2907 9.06328 27.8293L8.51482 28.7052L10.0223 28.5752L10.58 28.5567L11.3797 28.504L11.9404 28.4886L12.4582 28.5567L12.4367 27.7643C12.6114 28.0212 12.6022 28.2162 12.6145 28.5721V28.5752ZM13.8002 29.64L13.6869 29.0364C13.5459 28.6526 12.9913 28.6836 12.5991 28.6959C12.3019 28.7052 12.0446 28.7795 12.0721 29.0179C12.1028 29.2964 12.1058 29.6369 12.3724 29.6988C12.8565 29.8102 13.4326 29.7793 13.8002 29.6431V29.64ZM17.8325 29.8876L8.05215 29.8938V30.4386L17.8325 30.4324V29.8876ZM9.93652 34.3014L8.7293 34.2952L8.76913 33.5183L10.2215 33.5121L10.5003 32.664L7.60787 32.6578V36.5486L8.7293 36.5269L8.74156 35.1464L9.63318 35.1155L9.93652 34.3045V34.3014ZM12.0139 32.6424H10.8588L10.8618 36.5393H12.017L12.0139 32.6424ZM15.1331 34.3014L13.9626 34.2921L14.0147 33.5059L15.415 33.5245L15.6969 32.6609H12.7922V36.5362L13.9688 36.5207L13.9749 35.1464L14.8665 35.1062L15.13 34.2983L15.1331 34.3014ZM17.6854 35.9481L17.9336 36.5547L19.055 36.5176L17.6854 32.6578L16.4874 32.6517L15.0994 36.5207L16.2331 36.5424L16.3924 35.945H17.6823L17.6854 35.9481Z" fill="#6DC8BD"/>
<path d="M17.5536 35.2516L16.6038 35.2887L17.0726 33.7164L17.5536 35.2516Z" fill="#6DC8BD"/>
</svg>
