<svg width="71" height="41" viewBox="0 0 71 41" fill="none" xmlns="http://www.w3.org/2000/svg">
<path d="M64.8235 32.5984H61.7099V32.0832C61.7099 31.848 61.5643 31.8144 61.1499 31.8144C60.7467 31.8144 60.6011 31.848 60.6011 32.0832V33.7296C61.0043 33.5168 61.5419 33.416 62.1467 33.416C64.2747 33.416 64.8235 34.1216 64.8235 34.984V36.7648C64.8235 38.1312 64.0843 38.8928 61.1499 38.8928C58.2267 38.8928 57.4875 38.1312 57.4875 36.7648V31.9824C57.4875 30.616 58.2267 29.8544 61.1499 29.8544C64.0843 29.8544 64.8235 30.616 64.8235 31.9824V32.5984ZM61.1499 35.0176C60.7467 35.0176 60.6011 35.096 60.6011 35.2528V36.6976C60.6011 36.8992 60.7467 36.9328 61.1499 36.9328C61.5643 36.9328 61.7099 36.8992 61.7099 36.6976V35.2528C61.7099 35.096 61.5643 35.0176 61.1499 35.0176Z" fill="#202123"/>
<path d="M50.0609 38.736V37.2688C53.4097 34.0096 54.0145 33.7072 54.0145 32.8448V31.9376C54.0145 31.7808 53.8577 31.736 53.5889 31.736C53.3201 31.736 53.1745 31.7808 53.1745 31.9376V32.5984H50.0945V31.9712C50.0945 30.7056 50.8561 29.8544 53.5889 29.8544C56.3217 29.8544 57.0945 30.6048 57.0945 31.904V32.9232C57.0945 33.9984 56.0753 34.704 54.3169 36.8992H57.1617V38.736H50.0609Z" fill="#202123"/>
<path d="M46.0889 29.8544C49.0233 29.8544 49.7625 30.616 49.7625 31.9824V36.7648C49.7625 38.1312 49.0233 38.8928 46.0889 38.8928C43.1657 38.8928 42.4265 38.1312 42.4265 36.7648V31.9824C42.4265 30.616 43.1657 29.8544 46.0889 29.8544ZM46.6489 32.0832C46.6489 31.848 46.5033 31.8144 46.0889 31.8144C45.6857 31.8144 45.5401 31.848 45.5401 32.0832V36.664C45.5401 36.8992 45.6857 36.9328 46.0889 36.9328C46.5033 36.9328 46.6489 36.8992 46.6489 36.664V32.0832Z" fill="#202123"/>
<path d="M35 38.736V37.2688C38.3488 34.0096 38.9536 33.7072 38.9536 32.8448V31.9376C38.9536 31.7808 38.7968 31.736 38.528 31.736C38.2592 31.736 38.1136 31.7808 38.1136 31.9376V32.5984H35.0336V31.9712C35.0336 30.7056 35.7952 29.8544 38.528 29.8544C41.2608 29.8544 42.0336 30.6048 42.0336 31.904V32.9232C42.0336 33.9984 41.0144 34.704 39.256 36.8992H42.1008V38.736H35Z" fill="#202123"/>
<path d="M70.2543 17V18.9264H68.4063V25.736H65.2927V18.9264H63.4559V17H70.2543Z" fill="#202123"/>
<path d="M63.7107 18.9264H60.7987V20.7632H63.5651V22.6784H60.7987V25.7472H57.6851V17.0112H63.7107V18.9264Z" fill="#202123"/>
<path d="M54.4584 25.736L54.2568 24.4144H52.7L52.476 25.736H49.452L51.7144 17H55.332L57.628 25.736H54.4584ZM53.036 22.4992H53.9544L53.5176 19.7328L53.036 22.4992Z" fill="#202123"/>
<path d="M49.8487 25.736L46.6343 25.7472L45.8951 22.7568H45.7159V25.7472H42.6023V17.0112H46.2311C49.0647 17.0112 49.7703 17.6832 49.7703 19.0608V20.7072C49.7703 21.4464 49.5575 21.984 48.9191 22.3312L49.8487 25.736ZM45.7159 18.9264V20.8304H46.2311C46.5111 20.8304 46.6567 20.7968 46.6567 20.6064V19.1616C46.6567 18.96 46.5111 18.9264 46.2311 18.9264H45.7159Z" fill="#202123"/>
<path d="M38.5952 17C41.5296 17 42.2688 17.728 42.2688 19.0944V23.6528C42.2688 25.0192 41.5296 25.736 38.5952 25.736H35.0336V17H38.5952ZM39.1552 19.1952C39.1552 18.96 39.0096 18.9264 38.5952 18.9264H38.1472V23.8208H38.5952C39.0096 23.8208 39.1552 23.7872 39.1552 23.552V19.1952Z" fill="#202123"/>
<path d="M52.7833 4H55.8969V12.736H52.7833V9.1072H51.7753V12.736H48.6617V4H51.7753V7.1808H52.7833V4Z" fill="#202123"/>
<path d="M41.0601 12.736V4.0112H44.8009C47.6233 4.0112 48.2617 4.616 48.2617 5.9936V6.7776C48.2617 7.4832 48.1161 7.976 47.5673 8.2672C48.1609 8.5584 48.3289 9.0624 48.3289 9.7792V10.7536C48.3289 12.1312 47.6233 12.736 44.8009 12.736H41.0601ZM44.1737 7.4384H44.7561C45.0361 7.4384 45.1817 7.4048 45.1817 7.2032V6.0944C45.1817 5.8928 45.0361 5.8592 44.7561 5.8592H44.1737V7.4384ZM44.1737 10.888H44.8009C45.0697 10.888 45.2153 10.8544 45.2153 10.664V9.3536C45.2153 9.1632 45.0697 9.1184 44.8009 9.1184H44.1737V10.888Z" fill="#202123"/>
<path d="M38.1472 10.8208H40.88V12.7472H35.0336V4.0112H38.1472V10.8208Z" fill="#202123"/>
<path d="M16.3587 5.69833C15.4487 4.56238 13.6502 4.18166 12.1335 4.38904C10.6382 4.59333 9.55358 5.67666 8.89175 6.97666C8.6405 7.47499 8.52714 7.93618 8.42602 8.47166C8.25138 9.38475 8.61906 9.66951 8.12575 9.94808C8.00625 10.304 8.00013 10.985 8.1472 11.3905L8.57922 12.579L8.80902 12.61C8.85805 12.6162 8.75387 12.7833 8.69872 12.8359L9.0327 15.0088C9.17977 15.9683 9.34216 16.9247 9.71597 17.8285C9.91513 18.3114 10.3073 18.8035 10.5647 19.2524L10.2062 19.6021H0.00612802L0.0735362 12.3438C0.297209 9.14023 2.87098 6.88999 5.8829 6.53404L0 6.47833C0.01532 3.06738 2.48797 0.393095 5.79098 0H20.0968C22.6829 0.328095 24.7541 1.97476 25.5538 4.4169C26.8009 8.32309 24.4355 12.1921 20.4553 12.9783L25.8786 13.0155V19.599L15.6939 19.5959C16.3036 18.1938 16.5763 16.7452 16.9103 15.2316C17.0941 14.3928 17.566 13.6005 17.8448 12.7895C17.7069 12.2262 17.9214 11.8547 18.0838 11.3905C18.8375 9.26713 18.3013 8.2457 18.1788 8.41594L17.9459 8.73785L17.6885 7.91451C17.5292 7.40071 17.235 6.79094 16.898 6.3669L16.3587 5.69523V5.69833Z" fill="#202123"/>
<path d="M12.4889 10.5393C12.1212 10.9757 11.683 11.1305 11.061 11.2078L11.1101 10.0936V9.55808L11.0917 8.95142C11.4716 8.72856 11.1897 8.28285 11.8914 8.23332L12.0385 8.39427C12.066 8.42523 12.2039 8.30142 12.1733 8.27046L12.0201 8.12499L12.4276 7.7907L12.3847 8.1807C12.3755 8.25808 12.6114 8.40356 12.6727 8.40356L12.4613 7.36975L12.829 7.73189L13.1292 7.62047C13.2089 7.58951 13.261 7.90213 13.261 7.9888V8.88023C13.261 9.09689 13.2794 9.25784 13.3008 9.3538L13.1262 9.64165C13.0772 9.72213 13.3805 9.85832 13.4693 9.83665L14.0025 9.70665L13.6869 9.84903C14.0638 10.0038 14.3365 10.6136 13.8615 10.9726L13.598 9.94189C13.1139 10.0905 12.7799 10.1864 12.4919 10.53L12.4889 10.5393Z" fill="#202123"/>
<path d="M11.1223 18.1412L10.6872 17.2931C10.6872 17.2559 10.6565 17.2188 10.6443 17.2528L10.5401 17.5067C10.4972 17.6119 10.2429 17.3705 10.2613 17.2126C10.2766 17.0826 10.4543 16.9588 10.6749 16.8938L10.439 16.5193L9.93956 16.5409L10.3593 15.925C10.3777 15.9002 10.537 15.9281 10.5677 15.9312C10.5983 15.9343 10.5983 15.9064 10.583 15.8786L10.4175 15.634L10.0131 15.8476L10.2123 15.535C10.2521 15.4731 10.1357 15.3307 10.1019 15.2409L9.81087 14.4764L9.64541 13.9409L9.53204 13.6933L10.0192 13.8543C10.1418 13.8945 10.1969 14.1917 10.2429 14.3898L10.7944 14.625C10.681 15.0831 10.9231 15.2007 11.1652 15.4607L11.7872 16.1293L11.6646 16.3769C11.6401 16.4295 11.7688 16.5471 11.8086 16.5936L11.9924 16.7886C12.0415 16.8381 11.9158 16.9928 11.8699 17.0455L12.02 17.5159C12.0599 17.6367 12.1242 17.8286 12.1119 17.9276C12.0966 18.0452 11.8668 18.1969 11.7657 18.2464L11.8607 18.7695L11.6217 18.4105C11.5757 18.3424 11.3459 18.4321 11.2785 18.4755L11.061 18.6178C11.015 18.6488 10.9262 18.4538 10.9078 18.4043L10.8036 18.1505C10.7852 18.1009 10.9905 18.1288 11.1223 18.1381V18.1412Z" fill="#202123"/>
<path d="M15.5865 12.4645C15.4578 12.4985 15.2096 12.5202 15.084 12.4985C15.2801 12.3716 15.2679 12.3283 15.0932 12.3593L14.7807 11.8671C14.9094 11.799 15.0718 11.6938 15.0381 11.5978C14.9768 11.4245 14.8665 11.2666 14.747 11.1428C14.6673 10.9943 14.5386 10.7002 14.4927 10.4897L14.2322 9.2795C14.223 9.23617 14.3762 9.07212 14.3364 9.05355L14.1434 8.97307L14.2721 8.33236L14.747 8.30141L14.5815 7.96093C14.6643 7.93308 14.9676 8.01665 15.0044 8.11569L15.179 8.58927L15.2862 8.45617C15.3138 8.42212 15.3935 8.49641 15.3904 8.53974L15.3843 8.71308C15.3169 8.9576 15.2495 9.1495 15.1208 9.4126L15.4854 10.5609L15.3996 11.0469C15.369 11.2171 15.4303 11.604 15.5589 11.635C15.85 11.5947 16.1564 11.5793 16.3893 11.6195L16.1656 12.5233C16.1288 12.6781 16.0492 12.9009 15.9358 12.8824C15.7796 12.8545 15.657 12.6843 15.5804 12.4645H15.5865Z" fill="#202123"/>
<path d="M13.454 12.8916L13.1354 12.1828L13.0434 12.6254C12.7248 12.2447 13.2824 11.8919 13.2426 11.4709L13.1354 10.3535C13.356 10.595 13.6164 11.1924 13.4785 11.5019L13.2518 12.0064L13.6716 11.6814L13.3253 12.2695L13.4479 12.8885L13.454 12.8916Z" fill="#202123"/>
<path d="M9.08775 11.505L8.55462 11.2017C8.50559 11.1738 8.45044 11.0098 8.45044 10.9571C8.45044 10.886 8.59138 10.7405 8.66798 10.7405C8.88246 10.7405 9.33287 11.0376 9.09082 11.505H9.08775Z" fill="#202123"/>
<path d="M14.0882 13.2259C14.1005 13.4209 13.9932 13.6314 13.791 13.7026L13.8676 12.5233L13.8217 12.3005C13.8125 12.2509 14.0178 12.1797 14.0208 12.2293L14.0392 12.5078L14.0882 13.2259Z" fill="#202123"/>
<path d="M17.667 9.10619L17.9336 9.60762C17.6517 9.46524 17.52 9.25786 17.4127 8.98238L17.9857 8.81524C18.0991 8.78119 18.2492 9.05357 18.2706 9.17429L17.667 9.10619Z" fill="#202123"/>
<path d="M16.6253 29.6492C16.6283 29.7359 16.0124 29.8071 15.9604 29.6307C15.9113 29.4666 15.945 29.1788 15.9604 29.0302C15.9205 28.9838 15.9696 28.8383 16.0094 28.8692C16.0492 28.9033 16.1779 29.0271 16.2116 29.0766L16.6283 29.6492H16.6253Z" fill="white"/>
<path d="M11.5574 25.7709L12.5838 25.9164L12.2652 26.3157C12.1916 26.4054 12.305 26.6562 12.3571 26.7366L12.0813 26.8821L13.4785 26.9038L13.3743 26.1795L12.9791 25.9783C13.693 25.8359 14.8205 25.8947 15.7459 26.2321C15.415 26.7026 14.9002 26.5231 14.3579 26.2785C14.4559 26.6252 14.8451 26.6128 15.0871 26.7738C15.2127 26.8728 15.3905 26.9812 15.4977 26.9812C15.6233 26.9812 15.7888 26.7181 15.8501 26.5881C16.0155 26.2414 16.0339 26.0495 15.7765 25.7926C15.2679 25.3407 15.1453 24.6876 15.3292 24.0252C14.8573 22.9728 14.9554 21.8183 15.415 20.7133C18.6015 20.7783 21.1171 20.1624 23.6755 22.3166C25.1003 23.5145 25.8449 25.3221 25.9 27.2071L19.6954 27.2288C23.5009 27.4919 26.3228 30.779 25.8295 34.6481C25.4281 37.6814 23.1393 39.9192 20.0815 40.2969H5.80317C2.68707 39.9161 0.386004 37.6071 0.0152588 34.4747L0.0673469 26.5262C0.085731 23.6538 3.13136 20.7814 5.99314 20.7504L10.2981 20.7009C10.3839 20.6174 10.5677 20.4657 10.6198 20.5369L10.8649 20.8712L10.4084 20.9393C10.7454 21.1838 11.2203 21.1095 11.4226 20.7659L11.012 20.4812C11.2418 20.3512 11.2203 20.3635 11.251 20.2057C11.2663 20.119 11.0825 20.0324 10.8557 19.9581C10.7822 20.0014 10.963 19.825 11.012 19.8497L11.3123 20.0014C11.5451 20.119 11.6585 20.1469 11.9097 20.0509L11.7382 20.834L12.02 20.9516L11.7964 21.0507C11.7228 21.0847 11.7412 21.3293 11.7106 21.4159L11.2265 22.719C11.4808 22.3445 11.7351 21.9421 11.9189 21.5243C12.4276 20.3666 12.9239 19.274 13.5092 18.1752L13.7359 17.7481C13.7175 17.7078 13.6072 17.5593 13.6562 17.5066L13.8983 17.2528L14.0699 16.7143L14.2843 15.3121C14.3242 15.2874 14.4467 15.2069 14.4314 15.2131L14.5754 14.0709L14.6398 13.5509C15.2311 13.7088 15.2863 14.2597 15.3414 14.7178L15.5069 14.9778C15.5528 15.049 15.271 15.1512 15.2434 15.0645C15.1913 14.9066 14.937 14.7983 14.7562 14.854L15.3047 15.5969L15.4609 15.1914C15.5467 15.5009 15.5038 15.86 15.4425 16.2283L15.5375 16.3862C15.5682 16.4357 15.3506 16.5131 15.2893 16.4821L14.7133 16.1726C14.6735 16.5812 14.8788 16.9031 15.1668 17.1724L14.8114 17.3147L14.9431 17.714C15.0136 17.9307 15.1269 18.3981 14.9983 18.5745L14.7868 18.8685C14.6919 19.0016 15.2648 19.2307 15.2648 19.2647L15.2464 19.5031L15.0105 19.2864C14.9676 19.2462 14.8451 19.4071 14.8359 19.4628L14.8022 19.6547C14.796 19.6888 14.6704 19.695 14.6796 19.6609L14.747 19.4288L14.4835 19.4009C14.4467 19.4628 14.4253 19.5247 14.3916 19.5433L14.1434 19.6702L14.6306 19.8126L14.5417 19.9952C14.5172 20.0447 14.5969 20.1252 14.7133 20.2738L14.3793 20.475L14.8114 20.7752L14.4161 21.2024L14.3027 21.0228C14.2905 21.0043 14.2629 21.0104 14.2568 21.0321C14.2445 21.0662 14.1986 21.1807 14.2016 21.1776L13.7941 20.9795L13.9473 21.2271C13.981 21.2828 13.791 21.4066 13.7359 21.4562C13.6869 21.4995 13.7696 21.6821 13.8309 21.6604C14.3885 21.4438 14.4406 21.0383 15.0565 21.32L14.842 21.8957L14.4161 22.4497C14.557 22.5735 14.6428 22.6447 14.6643 22.9945L14.3119 22.6478C14.2568 22.5952 14.1036 22.4993 14.0208 22.4714C13.932 22.4435 13.9013 22.6262 13.932 22.8026L13.5888 22.9295L14.0147 23.5671L14.1434 23.1678L14.2506 23.7404L13.5735 23.9447L13.9963 24.0469C13.5122 24.0964 13.1966 24.2295 12.973 24.5885L12.2498 24.9847L11.5941 24.8764L11.8454 25.2571L11.3153 25.0931L11.5482 25.3221C11.6095 25.3809 11.5758 25.5573 11.5513 25.7647L11.5574 25.7709ZM10.8649 22.2331C10.9507 22.0876 11.0794 21.7533 10.917 21.549L10.5126 22.5921C10.4788 22.6788 10.5187 22.9697 10.5953 22.9635L10.8312 22.9388C10.9813 22.9233 10.7485 22.4343 10.868 22.2331H10.8649ZM12.6145 28.5752L13.8738 28.5814L14.6704 28.5969H16.1166C16.4629 28.6 16.8122 28.8352 17.2871 28.6897L16.8152 27.8912C16.2239 27.6188 16.8183 27.2133 15.4732 27.0864C14.6091 27.0059 13.7512 26.9316 12.9515 27.0833L12.8381 27.495C12.8167 27.5754 12.4827 27.5166 12.4888 27.4331L12.5133 27.0183C11.7565 26.9781 10.9752 26.9997 10.2123 27.1545C9.65157 26.9966 9.21035 27.2907 9.06328 27.8293L8.51482 28.7052L10.0223 28.5752L10.58 28.5566L11.3797 28.504L11.9404 28.4885L12.4582 28.5566L12.4367 27.7642C12.6114 28.0212 12.6022 28.2162 12.6145 28.5721V28.5752ZM13.8002 29.64L13.6869 29.0364C13.5459 28.6526 12.9913 28.6835 12.5991 28.6959C12.3019 28.7052 12.0446 28.7795 12.0721 29.0178C12.1028 29.2964 12.1058 29.6369 12.3724 29.6988C12.8565 29.8102 13.4326 29.7792 13.8002 29.6431V29.64ZM17.8325 29.8876L8.05215 29.8938V30.4385L17.8325 30.4323V29.8876ZM9.93652 34.3014L8.7293 34.2952L8.76913 33.5183L10.2215 33.5121L10.5003 32.664L7.60787 32.6578V36.5485L8.7293 36.5269L8.74156 35.1464L9.63318 35.1154L9.93652 34.3045V34.3014ZM12.0139 32.6423H10.8588L10.8618 36.5392H12.017L12.0139 32.6423ZM15.1331 34.3014L13.9626 34.2921L14.0147 33.5059L15.415 33.5245L15.6969 32.6609H12.7922V36.5361L13.9688 36.5207L13.9749 35.1464L14.8665 35.1061L15.13 34.2983L15.1331 34.3014ZM17.6854 35.948L17.9336 36.5547L19.055 36.5176L17.6854 32.6578L16.4874 32.6516L15.0994 36.5207L16.2331 36.5423L16.3924 35.945H17.6823L17.6854 35.948Z" fill="#202123"/>
<path d="M17.5537 35.2516L16.6038 35.2888L17.0726 33.7164L17.5537 35.2516Z" fill="#202123"/>
</svg>
