<svg width="39" height="39" viewBox="0 0 39 39" fill="none" xmlns="http://www.w3.org/2000/svg">
<g clip-path="url(#clip0_23_2642)">
<path d="M19.5 0C15.6433 0 11.8731 1.14365 8.66639 3.28634C5.45963 5.42903 2.96027 8.47451 1.48436 12.0377C0.00844913 15.6008 -0.377716 19.5216 0.374696 23.3043C1.12711 27.0869 2.9843 30.5615 5.71143 33.2886C8.43855 36.0157 11.9131 37.8729 15.6957 38.6253C19.4784 39.3777 23.3992 38.9916 26.9623 37.5157C30.5255 36.0397 33.571 33.5404 35.7137 30.3336C37.8564 27.1269 39 23.3567 39 19.5C39 14.3283 36.9456 9.36838 33.2886 5.71142C29.6316 2.05446 24.6717 0 19.5 0ZM19.5 4.0625C22.4308 4.06092 25.3014 4.89454 27.7755 6.46571C30.2496 8.03688 32.2247 10.2805 33.4695 12.9339C34.7143 15.5872 35.1772 18.5403 34.8041 21.4472C34.4309 24.3542 33.2371 27.0946 31.3625 29.3475C31.2481 29.483 31.0932 29.5783 30.9206 29.6192C30.748 29.6602 30.5669 29.6447 30.4038 29.575C28.9738 28.925 27.235 28.2913 25.2688 27.56L24.05 27.1213C23.8388 27.04 23.6438 26.6825 23.53 26.2112C23.4144 25.797 23.3822 25.364 23.4352 24.9372C23.4882 24.5104 23.6254 24.0984 23.8388 23.725C25.5775 21.8075 26.65 19.76 26.65 15.4375C26.7351 14.4568 26.612 13.4692 26.2887 12.5393C25.9655 11.6095 25.4494 10.7585 24.7744 10.042C24.0993 9.32552 23.2805 8.75976 22.3716 8.38179C21.4626 8.00382 20.4841 7.82218 19.5 7.84875C18.516 7.82218 17.5374 8.00382 16.6285 8.38179C15.7195 8.75976 14.9007 9.32552 14.2256 10.042C13.5506 10.7585 13.0345 11.6095 12.7113 12.5393C12.3881 13.4692 12.2649 14.4568 12.35 15.4375C12.35 19.76 13.4225 21.8237 15.1613 23.725C15.3747 24.0984 15.5118 24.5104 15.5648 24.9372C15.6178 25.364 15.5856 25.797 15.47 26.2112C15.3563 26.6825 15.1613 27.04 14.95 27.1213L13.7313 27.625C11.765 28.3562 10.0263 28.99 8.59626 29.64C8.43314 29.7097 8.25198 29.7252 8.0794 29.6842C7.90682 29.6433 7.75193 29.548 7.63751 29.4125C5.74289 27.1609 4.53204 24.4142 4.1479 21.4967C3.76376 18.5793 4.22236 15.6128 5.46958 12.9475C6.71679 10.2822 8.70054 8.02942 11.1866 6.45506C13.6727 4.8807 16.5574 4.05051 19.5 4.0625Z" fill="#F4FF7B"/>
</g>
<defs>
<clipPath id="clip0_23_2642">
<rect width="39" height="39" fill="white"/>
</clipPath>
</defs>
</svg>
