<svg width="46" height="39" viewBox="0 0 46 39" fill="none" xmlns="http://www.w3.org/2000/svg">
<path fill-rule="evenodd" clip-rule="evenodd" d="M23.0001 6.42467C24.7363 6.42467 26.1437 4.98647 26.1437 3.21234C26.1437 1.43822 24.7363 0 23.0001 0C21.2638 0 19.8563 1.43822 19.8563 3.21234C19.8563 4.98647 21.2638 6.42467 23.0001 6.42467ZM15.1103 10.7159C15.1103 12.49 13.7029 13.9282 11.9666 13.9282C10.2303 13.9282 8.82286 12.49 8.82286 10.7159C8.82286 8.94176 10.2303 7.50354 11.9666 7.50354C13.7029 7.50354 15.1103 8.94176 15.1103 10.7159ZM37.1772 10.7159C37.1772 12.49 35.7698 13.9282 34.0335 13.9282C32.2971 13.9282 30.8897 12.49 30.8897 10.7159C30.8897 8.94176 32.2971 7.50354 34.0335 7.50354C35.7698 7.50354 37.1772 8.94176 37.1772 10.7159ZM37.6943 18.4759C38.6652 19.468 39.2107 20.8136 39.2107 22.2166V23.4947C39.2107 23.92 38.948 24.2823 38.5797 24.4222C38.4747 24.4619 38.3613 24.4837 38.2429 24.4837H36.992L36.3582 29.6631C36.3015 30.1272 35.9361 30.4826 35.4885 30.5251C35.4587 30.5281 35.4285 30.5295 35.3979 30.5295H32.6692C32.1812 30.5295 31.7695 30.158 31.7089 29.6631L31.0753 24.4837H29.8245C29.2898 24.4837 28.8566 24.041 28.8566 23.4947V22.2166C28.8566 20.8136 29.4019 19.468 30.3728 18.4759C31.3438 17.4839 32.6605 16.9266 34.0337 16.9266C35.4067 16.9266 36.7235 17.4839 37.6943 18.4759ZM17.1438 22.2166C17.1438 20.8136 16.5984 19.468 15.6275 18.4759C14.6566 17.4839 13.3398 16.9266 11.9667 16.9266C10.5937 16.9266 9.27688 17.4839 8.306 18.4759C7.33511 19.468 6.78967 20.8136 6.78967 22.2166V23.4947C6.78967 23.9198 7.05219 24.2823 7.42061 24.4222C7.52553 24.4619 7.63906 24.4837 7.75752 24.4837H9.00841L9.64201 29.6631C9.70256 30.158 10.1143 30.5295 10.6024 30.5295H13.3311C13.8192 30.5295 14.2309 30.158 14.2914 29.6631L14.9251 24.4837H16.1759C16.7105 24.4837 17.1438 24.041 17.1438 23.4947V22.2166ZM26.6609 10.9724C27.6317 11.9645 28.1772 13.3101 28.1772 14.713V15.9912C28.1772 16.5373 27.744 16.9802 27.2093 16.9802H25.9585L25.3249 22.1596C25.3214 22.1881 25.3168 22.2162 25.311 22.2437C25.2167 22.696 24.8245 23.0259 24.3644 23.0259H21.6358C21.1782 23.0259 20.7878 22.6994 20.6908 22.2508L20.6893 22.2437C20.6837 22.2162 20.679 22.1881 20.6755 22.1596L20.0418 16.9802H18.791C18.2564 16.9802 17.8231 16.5373 17.8231 15.9912V14.713C17.8231 13.3101 18.3685 11.9645 19.3395 10.9724C20.3103 9.98034 21.6271 9.423 23.0001 9.423C24.3731 9.423 25.69 9.98034 26.6609 10.9724ZM19.5766 25.387C19.1311 26.2211 18.4003 26.8732 17.5181 27.2063L17.1726 30.0312C16.9304 32.0107 15.2835 33.4964 13.3311 33.4964H10.6024C8.64996 33.4964 7.00304 32.0107 6.76088 30.0312L6.41532 27.2063C5.61537 26.9043 4.93985 26.3398 4.48871 25.6153C1.6677 27.0097 0 28.7343 0 30.6009C0 35.2395 10.2975 39 23.0001 39C35.7026 39 46 35.2395 46 30.6009C46 28.7343 44.3324 27.0097 41.5115 25.6153C41.0605 26.3398 40.3849 26.9043 39.5851 27.2063L39.2395 30.0312C38.9972 32.0107 37.3503 33.4964 35.3979 33.4964H32.6692C30.7168 33.4964 29.0699 32.0107 28.8278 30.0312L28.4822 27.2063C27.6001 26.8732 26.8692 26.2211 26.4238 25.387C25.8247 25.7719 25.1174 25.9929 24.3644 25.9929H21.6358C20.883 25.9929 20.1755 25.7719 19.5766 25.387Z" fill="#F4FF7B"/>
</svg>
