<svg width="36" height="37" viewBox="0 0 36 37" fill="none" xmlns="http://www.w3.org/2000/svg">
<path fill-rule="evenodd" clip-rule="evenodd" d="M10.88 0C10.5617 0 10.2565 0.133196 10.0315 0.370286C9.80643 0.607377 9.68 0.92894 9.68 1.26424V3.16059H8.48C7.76938 3.15498 7.06479 3.29831 6.40723 3.58222C5.74967 3.86614 5.15226 4.28498 4.64976 4.81438C4.14726 5.34378 3.7497 5.97317 3.48021 6.66593C3.21072 7.35869 3.07468 8.101 3.08 8.84966C3.07468 9.59832 3.21072 10.3406 3.48021 11.0334C3.7497 11.7261 4.14726 12.3555 4.64976 12.8849C5.15226 13.4143 5.74967 13.8332 6.40723 14.1171C7.06479 14.401 7.76938 14.5443 8.48 14.5387H11.0368C11.6702 15.563 12.4991 16.4371 13.4706 17.1054C14.4422 17.7738 15.5352 18.2217 16.68 18.4208V22.0399H8.8C8.0016 22.0399 7.2272 22.3264 6.6496 22.9349C6.0736 23.5435 5.8 24.3593 5.8 25.2005V27.7289H8.6V25.2005C8.59864 25.1393 8.60898 25.0786 8.6304 25.0218C8.68432 24.9992 8.742 24.9883 8.8 24.9898H18.064H18.08H18.096H27.2C27.258 24.9883 27.3157 24.9992 27.3696 25.0218C27.3909 25.0786 27.4012 25.1394 27.4 25.2005V27.7289H30.2V25.2005C30.2 24.3593 29.928 23.5435 29.3504 22.9349C28.7728 22.3281 27.9984 22.0399 27.2 22.0399H19.48V18.4225C20.6247 18.223 21.7174 17.7747 22.6887 17.106C23.66 16.4374 24.4885 15.5631 25.1216 14.5387H27.68C28.3906 14.5443 29.0952 14.401 29.7528 14.1171C30.4103 13.8332 31.0077 13.4143 31.5102 12.8849C32.0127 12.3555 32.4103 11.7261 32.6798 11.0334C32.9493 10.3406 33.0853 9.59832 33.08 8.84966C33.0853 8.101 32.9493 7.35869 32.6798 6.66593C32.4103 5.97317 32.0127 5.34378 31.5102 4.81438C31.0077 4.28498 30.4103 3.86614 29.7528 3.58222C29.0952 3.29831 28.3906 3.15498 27.68 3.16059H26.48V1.26424C26.48 0.92894 26.3536 0.607377 26.1285 0.370286C25.9035 0.133196 25.5983 0 25.28 0H10.88ZM8.48 6.11048H9.68V9.69248C9.68 10.3448 9.7456 10.9786 9.872 11.5888H8.48C8.13707 11.5945 7.79656 11.5276 7.47867 11.3919C7.16078 11.2563 6.87201 11.0547 6.62949 10.7992C6.38697 10.5437 6.19566 10.2395 6.06691 9.90459C5.93816 9.56969 5.8746 9.21094 5.88 8.84966C5.8746 8.48837 5.93816 8.12963 6.06691 7.79472C6.19566 7.45982 6.38697 7.15559 6.62949 6.90009C6.87201 6.64459 7.16078 6.44304 7.47867 6.30739C7.79656 6.17175 8.13707 6.10479 8.48 6.11048ZM27.68 11.5888H26.288C26.4157 10.9657 26.48 10.33 26.48 9.69248V6.11048H27.68C29.1472 6.11048 30.28 7.30392 30.28 8.84966C30.28 10.3954 29.1472 11.5888 27.68 11.5888ZM14.4 33.6287C14.4 35.4829 12.96 37 11.2 37H3.2C1.44 37 0 35.4829 0 33.6287C0 31.7745 1.44 30.2574 3.2 30.2574H11.2C12.96 30.2574 14.4 31.7745 14.4 33.6287ZM32.8 37C34.56 37 36 35.4829 36 33.6287C36 31.7745 34.56 30.2574 32.8 30.2574H24.8C23.04 30.2574 21.6 31.7745 21.6 33.6287C21.6 35.4829 23.04 37 24.8 37H32.8Z" fill="#F4FF7B"/>
</svg>
