<svg width="41" height="41" viewBox="0 0 41 41" fill="none" xmlns="http://www.w3.org/2000/svg">
<g clip-path="url(#clip0_85_365)">
<path fill-rule="evenodd" clip-rule="evenodd" d="M32.8854 0C32.0818 0 31.3126 0.273479 30.7409 0.845061C30.1693 1.41664 29.8958 2.18591 29.8958 2.98958V27.2479C29.8958 28.0515 30.1693 28.8208 30.7409 29.3924C31.3126 29.964 32.0818 30.2375 32.8854 30.2375H38.0104C38.814 30.2375 39.5833 29.964 40.1549 29.3924C40.7265 28.8208 41 28.0515 41 27.2479V2.98958C41 2.18591 40.7265 1.41664 40.1549 0.845061C39.5833 0.273479 38.814 0 38.0104 0H32.8854ZM32.8854 33.3125C32.0818 33.3125 31.3126 33.586 30.7409 34.1576C30.1693 34.7292 29.8958 35.4985 29.8958 36.3021V38.0104C29.8958 38.814 30.1693 39.5833 30.7409 40.1549C31.3126 40.7265 32.0818 41 32.8854 41H38.0104C38.814 41 39.5833 40.7265 40.1549 40.1549C40.7265 39.5833 41 38.814 41 38.0104V36.3021C41 35.4985 40.7265 34.7292 40.1549 34.1576C39.5833 33.586 38.814 33.3125 38.0104 33.3125H32.8854ZM15.793 9.38673C16.3646 8.81515 17.1339 8.54167 17.9375 8.54167H23.0625C23.8661 8.54167 24.6354 8.81515 25.207 9.38673C25.7786 9.9583 26.0521 10.7276 26.0521 11.5313V27.2479C26.0521 28.0515 25.7786 28.8208 25.207 29.3924C24.6354 29.964 23.8661 30.2375 23.0625 30.2375H17.9375C17.1339 30.2375 16.3646 29.964 15.793 29.3924C15.2214 28.8208 14.9479 28.0515 14.9479 27.2479V11.5313C14.9479 10.7276 15.2214 9.9583 15.793 9.38673ZM17.9375 33.3125C17.1339 33.3125 16.3646 33.586 15.793 34.1576C15.2214 34.7292 14.9479 35.4985 14.9479 36.3021V38.0104C14.9479 38.814 15.2214 39.5833 15.793 40.1549C16.3646 40.7265 17.1339 41 17.9375 41H23.0625C23.8661 41 24.6354 40.7265 25.207 40.1549C25.7786 39.5833 26.0521 38.814 26.0521 38.0104V36.3021C26.0521 35.4985 25.7786 34.7292 25.207 34.1576C24.6354 33.586 23.8661 33.3125 23.0625 33.3125H17.9375ZM0.845061 17.9284C1.41664 17.3568 2.18591 17.0833 2.98958 17.0833H8.11458C8.91825 17.0833 9.68753 17.3568 10.2591 17.9284C10.8307 18.5001 11.1042 19.2693 11.1042 20.0729V27.2479C11.1042 28.0515 10.8307 28.8208 10.2591 29.3924C9.68753 29.964 8.91825 30.2375 8.11458 30.2375H2.98958C2.18591 30.2375 1.41664 29.964 0.845061 29.3924C0.273479 28.8208 0 28.0515 0 27.2479V20.0729C0 19.2693 0.273479 18.5001 0.845061 17.9284ZM2.98958 33.3125C2.18591 33.3125 1.41664 33.586 0.845061 34.1576C0.273479 34.7292 0 35.4985 0 36.3021V38.0104C0 38.814 0.273479 39.5833 0.845061 40.1549C1.41664 40.7265 2.18591 41 2.98958 41H8.11458C8.91825 41 9.68753 40.7265 10.2591 40.1549C10.8307 39.5833 11.1042 38.814 11.1042 38.0104V36.3021C11.1042 35.4985 10.8307 34.7292 10.2591 34.1576C9.68753 33.586 8.91825 33.3125 8.11458 33.3125H2.98958Z" fill="#F4FF7B"/>
</g>
<defs>
<clipPath id="clip0_85_365">
<rect width="41" height="41" fill="white"/>
</clipPath>
</defs>
</svg>
