<svg width="25" height="41" viewBox="0 0 25 41" fill="none" xmlns="http://www.w3.org/2000/svg">
<path d="M24.6656 37.5503L21.9329 2.25254C21.9073 1.93212 21.8188 1.61989 21.6725 1.33367C21.5262 1.04745 21.325 0.792857 21.0803 0.584414C20.8356 0.37597 20.5522 0.217763 20.2464 0.118827C19.9405 0.0198907 19.6182 -0.0178379 19.2978 0.00779548C18.9774 0.0334288 18.6651 0.121922 18.3789 0.268223C18.0927 0.414523 17.8381 0.615765 17.6297 0.86046C17.4212 1.10515 17.263 1.38851 17.1641 1.69435C17.0651 2.00018 17.0274 2.32251 17.0531 2.64293L17.2482 4.98526H7.48851V2.70799C7.5197 2.38651 7.48588 2.06204 7.38907 1.7539C7.29225 1.44576 7.13442 1.16025 6.92497 0.914379C6.71553 0.668505 6.45874 0.46729 6.16991 0.322719C5.88109 0.178147 5.56612 0.0931752 5.24377 0.0728612C4.60355 0.0364802 3.97424 0.250258 3.48866 0.669075C3.00307 1.08789 2.6992 1.67898 2.64117 2.3176L0.103635 33.9717C0.0876381 34.1666 0.0876381 34.3624 0.103635 34.5573V34.7525L0.00603803 37.8105C-0.0391488 38.4562 0.170627 39.0938 0.590324 39.5865C1.01002 40.0791 1.60617 40.3876 2.25078 40.4456H2.41344C3.02249 40.4395 3.6072 40.2057 4.05267 39.7904C4.49814 39.375 4.77215 38.808 4.82084 38.2009V37.1599H19.5906V38.1033C19.6322 38.7188 19.9085 39.2949 20.3626 39.7126C20.8166 40.1303 21.4137 40.3578 22.0305 40.348H22.2257C22.5786 40.3519 22.9281 40.2791 23.2501 40.1347C23.5722 39.9904 23.8591 39.7779 24.091 39.5119C24.323 39.246 24.4944 38.9328 24.5937 38.5942C24.6929 38.2555 24.7174 37.8993 24.6656 37.5503ZM17.541 9.86513L18.1592 17.6729H6.48L7.13065 9.86513H17.541ZM5.34136 32.1173L6.08961 22.5528H18.6797L19.4605 32.1173H5.34136Z" fill="#F4FF7B"/>
</svg>
