<svg width="39" height="40" viewBox="0 0 39 40" fill="none" xmlns="http://www.w3.org/2000/svg">
<path fill-rule="evenodd" clip-rule="evenodd" d="M30.9457 5H35.6087C36.5081 5 37.3707 5.35119 38.0067 5.97631C38.6427 6.60143 39 7.44928 39 8.33333V36.6667C39 37.5507 38.6427 38.3986 38.0067 39.0237C37.3707 39.6488 36.5081 40 35.6087 40H3.3913C2.49187 40 1.62928 39.6488 0.99329 39.0237C0.357297 38.3986 0 37.5507 0 36.6667V8.33333C0 7.44928 0.357297 6.60143 0.99329 5.97631C1.62928 5.35119 2.49187 5 3.3913 5H5.93478C6.15964 5 6.37529 5.0878 6.53429 5.24408C6.69328 5.40036 6.78261 5.61232 6.78261 5.83333V9.58333C6.78261 9.91485 6.91659 10.2328 7.15509 10.4672C7.39359 10.7016 7.71706 10.8333 8.05435 10.8333C8.39163 10.8333 8.71511 10.7016 8.9536 10.4672C9.1921 10.2328 9.32609 9.91485 9.32609 9.58333V1.66667C9.32609 1.22464 9.50474 0.800716 9.82273 0.488155C10.1407 0.175595 10.572 0 11.0217 0C11.4715 0 11.9027 0.175595 12.2207 0.488155C12.5387 0.800716 12.7174 1.22464 12.7174 1.66667V4.58333C12.7174 4.69384 12.7621 4.79982 12.8416 4.87796C12.9211 4.9561 13.0289 5 13.1413 5H23.7391C23.964 5 24.1796 5.0878 24.3386 5.24408C24.4976 5.40036 24.587 5.61232 24.587 5.83333V9.58333C24.587 9.91485 24.7209 10.2328 24.9594 10.4672C25.1979 10.7016 25.5214 10.8333 25.8587 10.8333C26.196 10.8333 26.5195 10.7016 26.758 10.4672C26.9964 10.2328 27.1304 9.91485 27.1304 9.58333V1.66667C27.1304 1.22464 27.3091 0.800716 27.6271 0.488155C27.9451 0.175595 28.3764 0 28.8261 0C29.2758 0 29.7071 0.175595 30.0251 0.488155C30.3431 0.800716 30.5217 1.22464 30.5217 1.66667V4.58333C30.5217 4.69384 30.5664 4.79982 30.6459 4.87796C30.7254 4.9561 30.8332 5 30.9457 5ZM35.3611 36.4233C35.4398 36.3458 35.5022 36.2538 35.5447 36.1526C35.5871 36.0513 35.6089 35.9428 35.6087 35.8333V15.8333C35.6087 15.6123 35.5194 15.4004 35.3604 15.2441C35.2014 15.0878 34.9857 15 34.7609 15H4.23913C4.01427 15 3.79862 15.0878 3.63963 15.2441C3.48063 15.4004 3.3913 15.6123 3.3913 15.8333V35.8333C3.3913 36.0543 3.48063 36.2663 3.63963 36.4226C3.79862 36.5789 4.01427 36.6667 4.23913 36.6667H34.7609C34.8723 36.6669 34.9826 36.6455 35.0856 36.6037C35.1886 36.562 35.2822 36.5007 35.3611 36.4233ZM10.842 26.1667C10.842 25.65 10.8878 25.1433 10.976 24.6517L14.486 26.3767L15.6254 29.6L13.3295 32.1583C11.7275 30.5626 10.8331 28.4085 10.842 26.1667ZM15.3711 33.6617L17.645 31.1283H21.355L23.6289 33.6617C22.3598 34.3323 20.9408 34.6817 19.5 34.6783C18.001 34.6783 16.5953 34.3117 15.3711 33.6617ZM25.6705 32.1583C27.2725 30.5626 28.1669 28.4085 28.158 26.1667C28.158 25.6467 28.1122 25.14 28.0223 24.6467L24.3428 26.3767L23.3525 29.575L25.6705 32.1583ZM11.8119 22.2667L11.795 22.26C12.415 21.0717 13.3124 20.0445 14.4138 19.2624C15.5151 18.4803 16.7891 17.9655 18.1316 17.76V21.9967L15.383 24.0233L11.8119 22.2683V22.2667ZM27.205 22.26C26.5697 21.0431 25.6437 19.9956 24.5065 19.2072C23.3693 18.4189 22.0546 17.9132 20.6751 17.7333V21.9967L23.4356 24.0317L27.205 22.26ZM17.9756 28.6283L17.0227 25.9383L19.4033 24.1833L21.8112 25.96L20.9871 28.6283H17.9739H17.9756Z" fill="#F4FF7B"/>
</svg>
