<svg width="41" height="41" viewBox="0 0 41 41" fill="none" xmlns="http://www.w3.org/2000/svg">
<g clip-path="url(#clip0_23_2650)">
<path d="M38.4375 0H2.5625C1.88288 0 1.2311 0.269977 0.750539 0.750539C0.269977 1.2311 0 1.88288 0 2.5625L0 38.4375C0 39.1171 0.269977 39.7689 0.750539 40.2495C1.2311 40.73 1.88288 41 2.5625 41H38.4375C39.1171 41 39.7689 40.73 40.2495 40.2495C40.73 39.7689 41 39.1171 41 38.4375V2.5625C41 1.88288 40.73 1.2311 40.2495 0.750539C39.7689 0.269977 39.1171 0 38.4375 0ZM28.1875 17.9375H12.8125C11.2267 17.9375 9.7059 17.3076 8.58459 16.1862C7.46328 15.0649 6.83333 13.5441 6.83333 11.9583C6.83333 10.3726 7.46328 8.85174 8.58459 7.73042C9.7059 6.60911 11.2267 5.97917 12.8125 5.97917H28.1875C29.7733 5.97917 31.2941 6.60911 32.4154 7.73042C33.5367 8.85174 34.1667 10.3726 34.1667 11.9583C34.1667 13.5441 33.5367 15.0649 32.4154 16.1862C31.2941 17.3076 29.7733 17.9375 28.1875 17.9375ZM34.1667 29.0417C34.1576 30.6335 33.5177 32.1569 32.3873 33.2777C31.2569 34.3985 29.7281 35.0254 28.1363 35.0208H12.7613C11.1755 35.0208 9.65465 34.3909 8.53334 33.2696C7.41203 32.1483 6.78208 30.6274 6.78208 29.0417C6.78208 27.4559 7.41203 25.9351 8.53334 24.8138C9.65465 23.6924 11.1755 23.0625 12.7613 23.0625H28.1363C29.7281 23.058 31.2569 23.6848 32.3873 24.8056C33.5177 25.9265 34.1576 27.4498 34.1667 29.0417Z" fill="#F4FF7B"/>
<path d="M9.39581 11.9071C9.39581 12.8133 9.75578 13.6823 10.3965 14.3231C11.0373 14.9638 11.9063 15.3238 12.8125 15.3238C13.7186 15.3238 14.5877 14.9638 15.2284 14.3231C15.8692 13.6823 16.2291 12.8133 16.2291 11.9071C16.2291 11.001 15.8692 10.1319 15.2284 9.4912C14.5877 8.85045 13.7186 8.49048 12.8125 8.49048C11.9063 8.49048 11.0373 8.85045 10.3965 9.4912C9.75578 10.1319 9.39581 11.001 9.39581 11.9071Z" fill="#F4FF7B"/>
<path d="M24.7708 29.0929C24.7708 29.9991 25.1308 30.8681 25.7715 31.5089C26.4123 32.1496 27.2813 32.5096 28.1875 32.5096C29.0936 32.5096 29.9627 32.1496 30.6034 31.5089C31.2442 30.8681 31.6041 29.9991 31.6041 29.0929C31.6041 28.1868 31.2442 27.3177 30.6034 26.677C29.9627 26.0362 29.0936 25.6763 28.1875 25.6763C27.2813 25.6763 26.4123 26.0362 25.7715 26.677C25.1308 27.3177 24.7708 28.1868 24.7708 29.0929Z" fill="#F4FF7B"/>
</g>
<defs>
<clipPath id="clip0_23_2650">
<rect width="41" height="41" fill="white"/>
</clipPath>
</defs>
</svg>
