<svg width="316" height="155" viewBox="0 0 316 155" fill="none" xmlns="http://www.w3.org/2000/svg">
<path d="M44 155V131.345C44 124.792 49.2988 119.517 55.8276 119.517H79.4828V131.345C79.4828 137.874 74.184 143.172 67.6552 143.172C67.6552 149.701 62.3564 155 55.8276 155H44ZM82.07 155V143.172H93.8976C87.3688 143.172 82.07 137.874 82.07 131.345V119.517H117.553V131.345C117.553 137.874 112.254 143.172 105.725 143.172H117.553V155H82.07ZM120.14 155V119.517H131.968C138.52 119.517 143.795 124.816 143.795 131.345V119.517H155.623V155H143.795C137.266 155 131.968 149.701 131.968 143.172V155H120.14ZM170.038 155C163.509 155 158.21 149.701 158.21 143.172C158.21 136.62 163.509 131.345 170.038 131.345H158.21C158.21 124.792 163.509 119.517 170.038 119.517H181.865C188.418 119.517 193.693 124.816 193.693 131.345V155C187.164 155 181.865 149.701 181.865 143.172V155H170.038ZM208.108 155C201.579 155 196.28 149.701 196.28 143.172V119.517H219.935V131.345H231.763V155H208.108ZM234.35 155V143.172H246.178C239.649 143.172 234.35 137.874 234.35 131.345C234.35 124.792 239.649 119.517 246.178 119.517H269.833V131.345H258.005C264.558 131.345 269.833 136.644 269.833 143.172C269.833 149.701 264.534 155 258.005 155H234.35Z" fill="white"/>
<path d="M219.424 96.4116V0H283.698C301.502 0 315.836 14.3975 315.836 32.1372C315.836 49.8769 301.438 64.2744 283.698 64.2744H315.836V96.4116H283.698C265.959 96.4116 251.561 82.0141 251.561 64.2744V96.4116H219.424Z" fill="white"/>
<path d="M144.299 96.7028V64.5657H112.162V0.29126H208.574V64.5657H176.436V96.7028H144.299Z" fill="white"/>
<path d="M32.1372 97.279C14.3975 97.279 0 82.8816 0 65.1418V33.0046C0 15.2006 14.3975 0.867432 32.1372 0.867432H64.2744C82.0784 0.867432 96.4116 15.2649 96.4116 33.0046V65.1418C114.216 65.1418 128.549 79.5393 128.549 97.279H32.1372Z" fill="white"/>
</svg>
