<svg width="317" height="262" viewBox="0 0 317 262" fill="none" xmlns="http://www.w3.org/2000/svg">
<path d="M309.519 254.204L161.639 254.197L161.652 204.761C161.658 180.004 178.803 161.042 202.094 155.388L161.674 155C162.041 129.197 181.621 106.272 207.258 106.018L257.709 105.521C283.741 105.265 305.871 123.331 309.094 148.55C312.401 174.413 296.405 196.967 269.961 204.43L309.385 204.789L309.516 254.204H309.519Z" stroke="white" stroke-width="5" stroke-miterlimit="10"/>
<path d="M105.39 258.658L51.0157 258.999C24.6592 259.165 3.23477 237.241 2.56207 209.905L51.8 209.752L51.902 160.769L2.65453 160.603C2.99566 135.126 22.5773 111.904 47.971 111.914L105.38 111.936C130.162 111.945 149.182 134.536 150.375 158.485C151.047 172.019 142.969 182.166 129.441 185.365C142.956 188.157 151.672 199.177 150.308 213.831C148.172 236.734 129.916 258.505 105.39 258.658Z" stroke="white" stroke-width="5" stroke-miterlimit="10"/>
<path d="M100.087 96.4324L66.2206 96.5708C51.0853 96.632 39.9572 84.2509 36.3042 70.6146L36.0521 96.7253L4.16083 96.6867V0.186838L66.3386 0.000171672C83.4647 -0.0513224 97.5025 11.4866 99.6433 28.0033C101.835 44.9255 91.0994 59.5917 74.7039 64.2197L99.9272 64.5287L100.084 96.4292L100.087 96.4324Z" fill="white"/>
<path d="M209.602 97.9896L174.888 97.906C160.156 97.8706 149.651 86.2759 145.524 73.1925L145.164 98.3239L112.893 98.2629L112.877 1.60828L146.573 1.82693C161.788 1.9266 172.899 12.875 177.138 27.6336L177.309 1.59863L209.596 1.60828V97.9896H209.602Z" fill="white"/>
<path d="M316.716 66.3701C316.135 82.0944 303.896 97.112 287.649 97.192L220.832 97.5246L220.794 1.63701L285.142 1.59864C301.868 1.58904 315.241 14.9661 316.665 31.0614L316.72 66.3733L316.716 66.3701Z" fill="white"/>
</svg>
