<svg width="247" height="243" viewBox="0 0 247 243" fill="none" xmlns="http://www.w3.org/2000/svg">
<g id="Loading screen_rnd-16">
<g id="Group 25">
<path id="RND" d="M1.17871 111V34.9655H51.8684C65.9094 34.9655 77.2132 46.32 77.2132 60.3103C77.2132 74.3007 65.8587 85.6552 51.8684 85.6552H77.2132V111H51.8684C37.878 111 26.5235 99.6455 26.5235 85.6552V111H1.17871ZM82.7574 111V34.9655H108.102C122.143 34.9655 133.447 46.32 133.447 60.3103V34.9655H158.792V111H133.447C119.457 111 108.102 99.6455 108.102 85.6552V111H82.7574ZM164.336 111V34.9655H215.026C229.067 34.9655 240.371 46.32 240.371 60.3103V85.6552C240.371 99.6455 229.016 111 215.026 111H164.336Z" fill="white"/>
<g id="6">
<mask id="path-2-outside-1_0_1" maskUnits="userSpaceOnUse" x="117.173" y="121" width="122" height="122" fill="black">
<rect fill="white" x="117.173" y="121" width="122" height="122"/>
<path d="M159.81 237C139.587 237 123.173 220.586 123.173 200.363V163.725C123.173 143.428 139.587 127.088 159.81 127.088H196.448C216.745 127.088 233.085 143.501 233.085 163.725H196.448C216.745 163.725 233.085 180.139 233.085 200.363C233.085 220.586 216.672 237 196.448 237H159.81Z"/>
</mask>
<path d="M233.085 163.725V169.507H238.868V163.725H233.085ZM159.81 237V231.218C142.78 231.218 128.955 217.393 128.955 200.363H123.173H117.391C117.391 223.78 136.393 242.782 159.81 242.782V237ZM123.173 200.363H128.955V163.725H123.173H117.391V200.363H123.173ZM123.173 163.725H128.955C128.955 146.629 142.772 132.87 159.81 132.87V127.088V121.305C136.401 121.305 117.391 140.227 117.391 163.725H123.173ZM159.81 127.088V132.87H196.448V127.088V121.305H159.81V127.088ZM196.448 127.088V132.87C213.544 132.87 227.303 146.687 227.303 163.725H233.085H238.868C238.868 140.315 219.946 121.305 196.448 121.305V127.088ZM233.085 163.725V157.943H196.448V163.725V169.507H233.085V163.725ZM196.448 163.725V169.507C213.544 169.507 227.303 183.325 227.303 200.363H233.085H238.868C238.868 176.953 219.946 157.943 196.448 157.943V163.725ZM233.085 200.363H227.303C227.303 217.393 213.478 231.218 196.448 231.218V237V242.782C219.865 242.782 238.868 223.78 238.868 200.363H233.085ZM196.448 237V231.218H159.81V237V242.782H196.448V237Z" fill="white" mask="url(#path-2-outside-1_0_1)"/>
</g>
<path id="1" d="M84.4734 126.185V197.518H109.816V238.815H2.81616V197.518H28.158V167.482H2.81616V126.185H84.4734Z" stroke="white" stroke-width="5.63158"/>
</g>
</g>
</svg>
