<svg width="308" height="363" viewBox="0 0 308 363" fill="none" xmlns="http://www.w3.org/2000/svg">
<path d="M194.378 57.0436C183.565 45.672 162.194 41.8609 144.173 43.9369C126.406 45.9819 113.518 56.8267 105.654 69.8404C102.668 74.829 101.321 79.4458 100.12 84.8062C98.0447 93.9468 102.414 96.7974 96.552 99.5861C95.1322 103.149 95.0593 109.966 96.8069 114.025L101.94 125.923L104.671 126.233C105.253 126.295 104.016 127.968 103.36 128.495L107.329 150.247C109.076 159.852 111.006 169.427 115.447 178.474C117.814 183.308 122.474 188.234 125.532 192.727L121.273 196.229H0.0728145L0.873774 123.569C3.5315 91.499 34.1136 68.9728 69.9019 65.4095L0 64.8518C0.182036 30.7062 29.5627 3.93511 68.8097 0H238.795C269.523 3.28442 294.134 19.7685 303.637 44.2157C318.454 83.3189 290.348 122.05 243.055 129.921L307.496 130.292V196.198L186.478 196.167C193.723 182.13 196.963 167.629 200.932 152.478C203.116 144.081 208.723 136.149 212.036 128.03C210.398 122.391 212.946 118.673 214.876 114.025C223.832 92.7694 217.461 82.5443 216.004 84.2485L213.237 87.4709L210.179 79.2289C208.286 74.0854 204.791 67.9813 200.786 63.7363L194.378 57.0126V57.0436Z" fill="white"/>
<path d="M137.162 258.245L149.36 259.705L145.573 263.711C144.699 264.612 146.047 267.128 146.666 267.935L143.389 269.395L159.992 269.612L158.754 262.345L154.057 260.326C162.541 258.897 175.941 259.487 186.937 262.873C183.004 267.594 176.887 265.792 170.442 263.339C171.608 266.817 176.232 266.693 179.108 268.308C180.601 269.302 182.713 270.389 183.987 270.389C185.48 270.389 187.447 267.749 188.175 266.444C190.141 262.966 190.36 261.04 187.301 258.463C181.257 253.928 179.8 247.375 181.985 240.728C176.377 230.169 177.543 218.584 183.004 207.496C220.872 208.149 250.766 201.968 281.17 223.584C298.101 235.604 306.949 253.742 307.605 272.656L233.871 272.873C279.094 275.513 312.629 308.497 306.767 347.319C301.997 377.756 274.798 400.211 238.459 404H68.7814C31.7509 400.18 4.4058 377.011 0 345.58L0.618996 265.823C0.837465 237.001 37.0305 208.18 71.0389 207.869L122.197 207.372C123.217 206.534 125.401 205.012 126.02 205.726L128.933 209.08L123.508 209.764C127.513 212.217 133.157 211.472 135.56 208.024L130.681 205.167C133.412 203.863 133.157 203.987 133.521 202.403C133.703 201.533 131.518 200.664 128.824 199.918C127.95 200.353 130.098 198.583 130.681 198.831L134.249 200.353C137.017 201.533 138.364 201.813 141.35 200.85L139.311 208.708L142.66 209.888L140.002 210.882C139.128 211.223 139.347 213.677 138.983 214.547L133.23 227.622C136.252 223.864 139.274 219.826 141.459 215.634C147.503 204.018 153.402 193.055 160.356 182.029L163.051 177.743C162.832 177.339 161.522 175.848 162.104 175.32L164.981 172.774L167.02 167.37L169.569 153.3C170.042 153.052 171.498 152.244 171.316 152.307L173.028 140.846L173.792 135.628C180.82 137.212 181.475 142.741 182.131 147.337L184.097 149.946C184.643 150.66 181.293 151.685 180.965 150.816C180.346 149.232 177.324 148.145 175.176 148.704L181.694 156.158L183.551 152.089C184.57 155.195 184.06 158.798 183.332 162.494L184.461 164.077C184.825 164.574 182.24 165.351 181.512 165.04L174.666 161.934C174.193 166.034 176.632 169.264 180.055 171.966L175.831 173.395L177.397 177.401C178.234 179.575 179.582 184.265 178.052 186.035L175.54 188.986C174.411 190.321 181.22 192.62 181.22 192.961L181.002 195.353L178.198 193.179C177.688 192.775 176.232 194.39 176.123 194.949L175.722 196.875C175.649 197.216 174.156 197.278 174.266 196.937L175.067 194.607L171.935 194.328C171.498 194.949 171.243 195.57 170.843 195.757L167.894 197.03L173.683 198.459L172.627 200.291C172.336 200.788 173.282 201.595 174.666 203.086L170.697 205.105L175.831 208.118L171.134 212.404L169.787 210.602C169.641 210.416 169.314 210.478 169.241 210.695C169.095 211.037 168.549 212.186 168.585 212.155L163.743 210.167L165.563 212.652C165.964 213.211 163.706 214.453 163.051 214.95C162.468 215.385 163.451 217.218 164.18 217C170.807 214.826 171.426 210.758 178.744 213.584L176.195 219.361L171.134 224.92C172.809 226.162 173.829 226.877 174.084 230.386L169.896 226.908C169.241 226.38 167.42 225.417 166.437 225.137C165.381 224.858 165.017 226.69 165.381 228.461L161.303 229.734L166.364 236.132L167.894 232.125L169.168 237.871L161.121 239.921L166.146 240.946C160.393 241.443 156.642 242.778 153.984 246.381L145.391 250.356L137.599 249.269L140.585 253.089L134.286 251.443L137.053 253.742C137.781 254.332 137.381 256.102 137.089 258.183L137.162 258.245ZM128.933 222.746C129.953 221.286 131.482 217.932 129.552 215.882L124.746 226.349C124.345 227.218 124.819 230.138 125.729 230.076L128.533 229.827C130.317 229.672 127.55 224.765 128.97 222.746H128.933ZM149.724 286.384L164.689 286.446L174.156 286.601H191.343C195.457 286.632 199.608 288.992 205.252 287.533L199.644 279.52C192.617 276.787 199.681 272.718 183.696 271.445C173.428 270.637 163.233 269.892 153.73 271.414L152.382 275.544C152.127 276.352 148.159 275.762 148.231 274.923L148.523 270.761C139.529 270.358 130.244 270.575 121.178 272.128C114.514 270.544 109.271 273.495 107.523 278.899L101.006 287.688L118.92 286.384L125.547 286.197L135.05 285.669L141.714 285.514L147.867 286.197L147.612 278.246C149.688 280.824 149.579 282.781 149.724 286.353V286.384ZM163.816 297.068L162.468 291.011C160.793 287.16 154.203 287.471 149.542 287.595C146.01 287.688 142.952 288.433 143.279 290.825C143.644 293.62 143.68 297.036 146.848 297.658C152.601 298.776 159.446 298.465 163.816 297.099V297.068ZM211.733 299.552L95.5075 299.614V305.08L211.733 305.018V299.552ZM117.901 343.841L103.554 343.779L104.028 335.983L121.287 335.921L124.6 327.411L90.2278 327.349V366.389L103.554 366.171L103.7 352.32L114.296 352.009L117.901 343.872V343.841ZM142.588 327.194H128.86L128.897 366.296H142.624L142.588 327.194ZM179.655 343.841L165.745 343.748L166.364 335.859L183.004 336.045L186.354 327.38H151.836V366.265L165.818 366.109L165.891 352.32L176.487 351.916L179.618 343.81L179.655 343.841ZM209.985 360.364L212.935 366.451L226.261 366.078L209.985 327.349L195.748 327.287L179.254 366.109L192.726 366.327L194.62 360.333H209.949L209.985 360.364Z" fill="white"/>
<rect x="80.8886" y="207.771" width="152.663" height="167.371" fill="white"/>
<rect x="80.8886" y="28.8567" width="152.663" height="167.371" fill="white"/>
</svg>
