<svg viewBox="0 0 200 236" xmlns="http://www.w3.org/2000/svg" role="img" aria-label="LBH Club">
  <defs>
    <linearGradient id="g" x1="0" y1="0" x2="0" y2="1">
      <stop offset="0" stop-color="#ffe9a8"/>
      <stop offset="0.45" stop-color="#f5b731"/>
      <stop offset="1" stop-color="#b9810c"/>
    </linearGradient>
    <linearGradient id="p" x1="0" y1="0" x2="0" y2="1">
      <stop offset="0" stop-color="#2aa15c"/>
      <stop offset="1" stop-color="#0c4a29"/>
    </linearGradient>
  </defs>
  <path d="M100 6 L190 26 L190 116 C190 174 152 210 100 230 C48 210 10 174 10 116 L10 26 Z" fill="url(#g)"/>
  <path d="M100 18 L180 36 L180 116 C180 166 146 199 100 218 C54 199 20 166 20 116 L20 36 Z" fill="url(#p)"/>
  <circle cx="100" cy="112" r="52" fill="#ffffff" stroke="#0a3a21" stroke-width="5"/>
  <g stroke="#10261a" stroke-width="4.5" fill="none" stroke-linecap="round">
    <line x1="100" y1="92" x2="100" y2="64"/>
    <line x1="119" y1="106" x2="148" y2="96"/>
    <line x1="112" y1="128" x2="130" y2="153"/>
    <line x1="88" y1="128" x2="70" y2="153"/>
    <line x1="81" y1="106" x2="52" y2="96"/>
  </g>
  <polygon points="100,92 119,106 112,128 88,128 81,106" fill="#10261a"/>
</svg>
